<svg xmlns="http://www.w3.org/2000/svg" viewBox="-10.5 22 1101.5 986" preserveAspectRatio="xMidYMid meet" height="100%" width="100%"><g transform="translate(37.5,50)"><rect fill="#FFF9E5" stroke-width="2" stroke="black" x="0" y="0" width="75" height="100" rx="10" ry="10"></rect></g><g transform="translate(37.5,152)"><rect fill="#FFF9E5" stroke-width="2" stroke="black" x="0" y="0" width="75" height="100" rx="10" ry="10"></rect></g><g transform="translate(37.5,254)"><rect fill="#FFF9E5" stroke-width="2" stroke="black" x="0" y="0" width="75" height="100" rx="10" ry="10"></rect></g><g transform="translate(37.5,356)"><rect fill="#FFF9E5" stroke-width="2" stroke="black" x="0" y="0" width="75" height="100" rx="10" ry="10"></rect></g><g transform="translate(37.5,458)"><rect fill="#FFF9E5" stroke-width="2" stroke="black" x="0" y="0" width="75" height="100" rx="10" ry="10"></rect></g><g transform="translate(37.5,560)"><rect fill="#FFF9E5" stroke-width="2" stroke="black" x="0" y="0" width="75" height="100" rx="10" ry="10"></rect></g><g transform="translate(37.5,662)"><rect fill="#FFF9E5" stroke-width="2" stroke="black" x="0" y="0" width="75" height="100" rx="10" ry="10"></rect></g><g transform="translate(37.5,764)"><rect fill="#FFF9E5" stroke-width="2" stroke="black" x="0" y="0" width="75" height="100" rx="10" ry="10"></rect></g><g transform="translate(37.5,866)"><rect fill="#FFF9E5" stroke-width="2" stroke="black" x="0" y="0" width="75" height="100" rx="10" ry="10"></rect></g><g transform="translate(114.5,50)"><rect fill="#FFF9E5" stroke-width="2" stroke="black" x="0" y="0" width="75" height="100" rx="10" ry="10"></rect></g><g transform="translate(114.5,152)"><rect fill="#FFF9E5" stroke-width="2" stroke="black" x="0" y="0" width="75" height="100" rx="10" ry="10"></rect></g><g transform="translate(114.5,764)"><rect fill="#FFF9E5" stroke-width="2" stroke="black" x="0" y="0" width="75" height="100" rx="10" ry="10"></rect></g><g transform="translate(114.5,866)"><rect fill="#FFF9E5" stroke-width="2" stroke="black" x="0" y="0" width="75" height="100" rx="10" ry="10"></rect></g><g transform="translate(191.5,50)"><rect fill="#FFF9E5" stroke-width="2" stroke="black" x="0" y="0" width="75" height="100" rx="10" ry="10"></rect></g><g transform="translate(191.5,254)"><rect fill="#FFF9E5" stroke-width="2" stroke="black" x="0" y="0" width="75" height="100" rx="10" ry="10"></rect></g><g transform="translate(191.5,713)"><rect fill="#FFF9E5" stroke-width="2" stroke="black" x="0" y="0" width="75" height="100" rx="10" ry="10"></rect></g><g transform="translate(191.5,866)"><rect fill="#FFF9E5" stroke-width="2" stroke="black" x="0" y="0" width="75" height="100" rx="10" ry="10"></rect></g><g transform="translate(268.5,50)"><rect fill="#FFF9E5" stroke-width="2" stroke="black" x="0" y="0" width="75" height="100" rx="10" ry="10"></rect></g><g transform="translate(268.5,356)"><rect fill="#FFF9E5" stroke-width="2" stroke="black" x="0" y="0" width="75" height="100" rx="10" ry="10"></rect></g><g transform="translate(268.5,662)"><rect fill="#FFF9E5" stroke-width="2" stroke="black" x="0" y="0" width="75" height="100" rx="10" ry="10"></rect></g><g transform="translate(268.5,866)"><rect fill="#FFF9E5" stroke-width="2" stroke="black" x="0" y="0" width="75" height="100" rx="10" ry="10"></rect></g><g transform="translate(345.5,50)"><rect fill="#FFF9E5" stroke-width="2" stroke="black" x="0" y="0" width="75" height="100" rx="10" ry="10"></rect></g><g transform="translate(345.5,458)"><rect fill="#FFF9E5" stroke-width="2" stroke="black" x="0" y="0" width="75" height="100" rx="10" ry="10"></rect></g><g transform="translate(345.5,611)"><rect fill="#FFF9E5" stroke-width="2" stroke="black" x="0" y="0" width="75" height="100" rx="10" ry="10"></rect></g><g transform="translate(345.5,866)"><rect fill="#FFF9E5" stroke-width="2" stroke="black" x="0" y="0" width="75" height="100" rx="10" ry="10"></rect></g><g transform="translate(384,203)"><rect fill="#FFF9E5" stroke-width="2" stroke="black" x="0" y="0" width="75" height="100" rx="10" ry="10"></rect></g><g transform="translate(422.5,50)"><rect fill="#FFF9E5" stroke-width="2" stroke="black" x="0" y="0" width="75" height="100" rx="10" ry="10"></rect></g><g transform="translate(422.5,305)"><rect fill="#FFF9E5" stroke-width="2" stroke="black" x="0" y="0" width="75" height="100" rx="10" ry="10"></rect></g><g transform="translate(422.5,560)"><rect fill="#FFF9E5" stroke-width="2" stroke="black" x="0" y="0" width="75" height="100" rx="10" ry="10"></rect></g><g transform="translate(422.5,866)"><rect fill="#FFF9E5" stroke-width="2" stroke="black" x="0" y="0" width="75" height="100" rx="10" ry="10"></rect></g><g transform="translate(461,203)"><rect fill="#FFF9E5" stroke-width="2" stroke="black" x="0" y="0" width="75" height="100" rx="10" ry="10"></rect></g><g transform="translate(499.5,50)"><rect fill="#FFF9E5" stroke-width="2" stroke="black" x="0" y="0" width="75" height="100" rx="10" ry="10"></rect></g><g transform="translate(499.5,305)"><rect fill="#FFF9E5" stroke-width="2" stroke="black" x="0" y="0" width="75" height="100" rx="10" ry="10"></rect></g><g transform="translate(499.5,611)"><rect fill="#FFF9E5" stroke-width="2" stroke="black" x="0" y="0" width="75" height="100" rx="10" ry="10"></rect></g><g transform="translate(499.5,866)"><rect fill="#FFF9E5" stroke-width="2" stroke="black" x="0" y="0" width="75" height="100" rx="10" ry="10"></rect></g><g transform="translate(538,203)"><rect fill="#FFF9E5" stroke-width="2" stroke="black" x="0" y="0" width="75" height="100" rx="10" ry="10"></rect></g><g transform="translate(576.5,50)"><rect fill="#FFF9E5" stroke-width="2" stroke="black" x="0" y="0" width="75" height="100" rx="10" ry="10"></rect></g><g transform="translate(576.5,305)"><rect fill="#FFF9E5" stroke-width="2" stroke="black" x="0" y="0" width="75" height="100" rx="10" ry="10"></rect></g><g transform="translate(576.5,560)"><rect fill="#FFF9E5" stroke-width="2" stroke="black" x="0" y="0" width="75" height="100" rx="10" ry="10"></rect></g><g transform="translate(576.5,866)"><rect fill="#FFF9E5" stroke-width="2" stroke="black" x="0" y="0" width="75" height="100" rx="10" ry="10"></rect></g><g transform="translate(615,203)"><rect fill="#FFF9E5" stroke-width="2" stroke="black" x="0" y="0" width="75" height="100" rx="10" ry="10"></rect></g><g transform="translate(653.5,50)"><rect fill="#FFF9E5" stroke-width="2" stroke="black" x="0" y="0" width="75" height="100" rx="10" ry="10"></rect></g><g transform="translate(653.5,458)"><rect fill="#FFF9E5" stroke-width="2" stroke="black" x="0" y="0" width="75" height="100" rx="10" ry="10"></rect></g><g transform="translate(653.5,611)"><rect fill="#FFF9E5" stroke-width="2" stroke="black" x="0" y="0" width="75" height="100" rx="10" ry="10"></rect></g><g transform="translate(653.5,866)"><rect fill="#FFF9E5" stroke-width="2" stroke="black" x="0" y="0" width="75" height="100" rx="10" ry="10"></rect></g><g transform="translate(730.5,50)"><rect fill="#FFF9E5" stroke-width="2" stroke="black" x="0" y="0" width="75" height="100" rx="10" ry="10"></rect></g><g transform="translate(730.5,356)"><rect fill="#FFF9E5" stroke-width="2" stroke="black" x="0" y="0" width="75" height="100" rx="10" ry="10"></rect></g><g transform="translate(730.5,662)"><rect fill="#FFF9E5" stroke-width="2" stroke="black" x="0" y="0" width="75" height="100" rx="10" ry="10"></rect></g><g transform="translate(730.5,866)"><rect fill="#FFF9E5" stroke-width="2" stroke="black" x="0" y="0" width="75" height="100" rx="10" ry="10"></rect></g><g transform="translate(807.5,50)"><rect fill="#FFF9E5" stroke-width="2" stroke="black" x="0" y="0" width="75" height="100" rx="10" ry="10"></rect></g><g transform="translate(807.5,254)"><rect fill="#FFF9E5" stroke-width="2" stroke="black" x="0" y="0" width="75" height="100" rx="10" ry="10"></rect></g><g transform="translate(807.5,713)"><rect fill="#FFF9E5" stroke-width="2" stroke="black" x="0" y="0" width="75" height="100" rx="10" ry="10"></rect></g><g transform="translate(807.5,866)"><rect fill="#FFF9E5" stroke-width="2" stroke="black" x="0" y="0" width="75" height="100" rx="10" ry="10"></rect></g><g transform="translate(884.5,50)"><rect fill="#FFF9E5" stroke-width="2" stroke="black" x="0" y="0" width="75" height="100" rx="10" ry="10"></rect></g><g transform="translate(884.5,152)"><rect fill="#FFF9E5" stroke-width="2" stroke="black" x="0" y="0" width="75" height="100" rx="10" ry="10"></rect></g><g transform="translate(884.5,764)"><rect fill="#FFF9E5" stroke-width="2" stroke="black" x="0" y="0" width="75" height="100" rx="10" ry="10"></rect></g><g transform="translate(884.5,866)"><rect fill="#FFF9E5" stroke-width="2" stroke="black" x="0" y="0" width="75" height="100" rx="10" ry="10"></rect></g><g transform="translate(961.5,50)"><rect fill="#FFF9E5" stroke-width="2" stroke="black" x="0" y="0" width="75" height="100" rx="10" ry="10"></rect></g><g transform="translate(961.5,152)"><rect fill="#FFF9E5" stroke-width="2" stroke="black" x="0" y="0" width="75" height="100" rx="10" ry="10"></rect></g><g transform="translate(961.5,254)"><rect fill="#FFF9E5" stroke-width="2" stroke="black" x="0" y="0" width="75" height="100" rx="10" ry="10"></rect></g><g transform="translate(961.5,356)"><rect fill="#FFF9E5" stroke-width="2" stroke="black" x="0" y="0" width="75" height="100" rx="10" ry="10"></rect></g><g transform="translate(961.5,458)"><rect fill="#FFF9E5" stroke-width="2" stroke="black" x="0" y="0" width="75" height="100" rx="10" ry="10"></rect></g><g transform="translate(961.5,560)"><rect fill="#FFF9E5" stroke-width="2" stroke="black" x="0" y="0" width="75" height="100" rx="10" ry="10"></rect></g><g transform="translate(961.5,662)"><rect fill="#FFF9E5" stroke-width="2" stroke="black" x="0" y="0" width="75" height="100" rx="10" ry="10"></rect></g><g transform="translate(961.5,764)"><rect fill="#FFF9E5" stroke-width="2" stroke="black" x="0" y="0" width="75" height="100" rx="10" ry="10"></rect></g><g transform="translate(961.5,866)"><rect fill="#FFF9E5" stroke-width="2" stroke="black" x="0" y="0" width="75" height="100" rx="10" ry="10"></rect></g><g transform="translate(29.5,42)"><rect fill="#FFF9E5" stroke-width="2" stroke="black" x="0" y="0" width="75" height="100" rx="10" ry="10"></rect></g><g transform="translate(29.5,144)"><rect fill="#FFF9E5" stroke-width="2" stroke="black" x="0" y="0" width="75" height="100" rx="10" ry="10"></rect></g><g transform="translate(29.5,246)"><rect fill="#FFF9E5" stroke-width="2" stroke="black" x="0" y="0" width="75" height="100" rx="10" ry="10"></rect></g><g transform="translate(29.5,348)"><rect fill="#FFF9E5" stroke-width="2" stroke="black" x="0" y="0" width="75" height="100" rx="10" ry="10"></rect></g><g transform="translate(29.5,450)"><rect fill="#FFF9E5" stroke-width="2" stroke="black" x="0" y="0" width="75" height="100" rx="10" ry="10"></rect></g><g transform="translate(29.5,552)"><rect fill="#FFF9E5" stroke-width="2" stroke="black" x="0" y="0" width="75" height="100" rx="10" ry="10"></rect></g><g transform="translate(29.5,654)"><rect fill="#FFF9E5" stroke-width="2" stroke="black" x="0" y="0" width="75" height="100" rx="10" ry="10"></rect></g><g transform="translate(29.5,756)"><rect fill="#FFF9E5" stroke-width="2" stroke="black" x="0" y="0" width="75" height="100" rx="10" ry="10"></rect></g><g transform="translate(29.5,858)"><rect fill="#FFF9E5" stroke-width="2" stroke="black" x="0" y="0" width="75" height="100" rx="10" ry="10"></rect></g><g transform="translate(106.5,42)"><rect fill="#FFF9E5" stroke-width="2" stroke="black" x="0" y="0" width="75" height="100" rx="10" ry="10"></rect></g><g transform="translate(106.5,144)"><rect fill="#FFF9E5" stroke-width="2" stroke="black" x="0" y="0" width="75" height="100" rx="10" ry="10"></rect></g><g transform="translate(106.5,756)"><rect fill="#FFF9E5" stroke-width="2" stroke="black" x="0" y="0" width="75" height="100" rx="10" ry="10"></rect></g><g transform="translate(106.5,858)"><rect fill="#FFF9E5" stroke-width="2" stroke="black" x="0" y="0" width="75" height="100" rx="10" ry="10"></rect></g><g transform="translate(183.5,42)"><rect fill="#FFF9E5" stroke-width="2" stroke="black" x="0" y="0" width="75" height="100" rx="10" ry="10"></rect></g><g transform="translate(183.5,246)"><rect fill="#FFF9E5" stroke-width="2" stroke="black" x="0" y="0" width="75" height="100" rx="10" ry="10"></rect></g><g transform="translate(183.5,705)"><rect fill="#FFF9E5" stroke-width="2" stroke="black" x="0" y="0" width="75" height="100" rx="10" ry="10"></rect></g><g transform="translate(183.5,858)"><rect fill="#FFF9E5" stroke-width="2" stroke="black" x="0" y="0" width="75" height="100" rx="10" ry="10"></rect></g><g transform="translate(260.5,42)"><rect fill="#FFF9E5" stroke-width="2" stroke="black" x="0" y="0" width="75" height="100" rx="10" ry="10"></rect></g><g transform="translate(260.5,348)"><rect fill="#FFF9E5" stroke-width="2" stroke="black" x="0" y="0" width="75" height="100" rx="10" ry="10"></rect></g><g transform="translate(260.5,654)"><rect fill="#FFF9E5" stroke-width="2" stroke="black" x="0" y="0" width="75" height="100" rx="10" ry="10"></rect></g><g transform="translate(260.5,858)"><rect fill="#FFF9E5" stroke-width="2" stroke="black" x="0" y="0" width="75" height="100" rx="10" ry="10"></rect></g><g transform="translate(337.5,42)"><rect fill="#FFF9E5" stroke-width="2" stroke="black" x="0" y="0" width="75" height="100" rx="10" ry="10"></rect></g><g transform="translate(337.5,450)"><rect fill="#FFF9E5" stroke-width="2" stroke="black" x="0" y="0" width="75" height="100" rx="10" ry="10"></rect></g><g transform="translate(337.5,603)"><rect fill="#FFF9E5" stroke-width="2" stroke="black" x="0" y="0" width="75" height="100" rx="10" ry="10"></rect></g><g transform="translate(337.5,858)"><rect fill="#FFF9E5" stroke-width="2" stroke="black" x="0" y="0" width="75" height="100" rx="10" ry="10"></rect></g><g transform="translate(376,195)"><rect fill="#FFF9E5" stroke-width="2" stroke="black" x="0" y="0" width="75" height="100" rx="10" ry="10"></rect></g><g transform="translate(414.5,42)"><rect fill="#FFF9E5" stroke-width="2" stroke="black" x="0" y="0" width="75" height="100" rx="10" ry="10"></rect></g><g transform="translate(414.5,297)"><rect fill="#FFF9E5" stroke-width="2" stroke="black" x="0" y="0" width="75" height="100" rx="10" ry="10"></rect></g><g transform="translate(414.5,552)"><rect fill="#FFF9E5" stroke-width="2" stroke="black" x="0" y="0" width="75" height="100" rx="10" ry="10"></rect></g><g transform="translate(414.5,858)"><rect fill="#FFF9E5" stroke-width="2" stroke="black" x="0" y="0" width="75" height="100" rx="10" ry="10"></rect></g><g transform="translate(453,195)"><rect fill="#FFF9E5" stroke-width="2" stroke="black" x="0" y="0" width="75" height="100" rx="10" ry="10"></rect></g><g transform="translate(491.5,42)"><rect fill="#FFF9E5" stroke-width="2" stroke="black" x="0" y="0" width="75" height="100" rx="10" ry="10"></rect></g><g transform="translate(491.5,297)"><rect fill="#FFF9E5" stroke-width="2" stroke="black" x="0" y="0" width="75" height="100" rx="10" ry="10"></rect></g><g transform="translate(491.5,603)"><rect fill="#FFF9E5" stroke-width="2" stroke="black" x="0" y="0" width="75" height="100" rx="10" ry="10"></rect></g><g transform="translate(491.5,858)"><rect fill="#FFF9E5" stroke-width="2" stroke="black" x="0" y="0" width="75" height="100" rx="10" ry="10"></rect></g><g transform="translate(530,195)"><rect fill="#FFF9E5" stroke-width="2" stroke="black" x="0" y="0" width="75" height="100" rx="10" ry="10"></rect></g><g transform="translate(568.5,42)"><rect fill="#FFF9E5" stroke-width="2" stroke="black" x="0" y="0" width="75" height="100" rx="10" ry="10"></rect></g><g transform="translate(568.5,297)"><rect fill="#FFF9E5" stroke-width="2" stroke="black" x="0" y="0" width="75" height="100" rx="10" ry="10"></rect></g><g transform="translate(568.5,552)"><rect fill="#FFF9E5" stroke-width="2" stroke="black" x="0" y="0" width="75" height="100" rx="10" ry="10"></rect></g><g transform="translate(568.5,858)"><rect fill="#FFF9E5" stroke-width="2" stroke="black" x="0" y="0" width="75" height="100" rx="10" ry="10"></rect></g><g transform="translate(607,195)"><rect fill="#FFF9E5" stroke-width="2" stroke="black" x="0" y="0" width="75" height="100" rx="10" ry="10"></rect></g><g transform="translate(645.5,42)"><rect fill="#FFF9E5" stroke-width="2" stroke="black" x="0" y="0" width="75" height="100" rx="10" ry="10"></rect></g><g transform="translate(645.5,450)"><rect fill="#FFF9E5" stroke-width="2" stroke="black" x="0" y="0" width="75" height="100" rx="10" ry="10"></rect></g><g transform="translate(645.5,603)"><rect fill="#FFF9E5" stroke-width="2" stroke="black" x="0" y="0" width="75" height="100" rx="10" ry="10"></rect></g><g transform="translate(645.5,858)"><rect fill="#FFF9E5" stroke-width="2" stroke="black" x="0" y="0" width="75" height="100" rx="10" ry="10"></rect></g><g transform="translate(722.5,42)"><rect fill="#FFF9E5" stroke-width="2" stroke="black" x="0" y="0" width="75" height="100" rx="10" ry="10"></rect></g><g transform="translate(722.5,348)"><rect fill="#FFF9E5" stroke-width="2" stroke="black" x="0" y="0" width="75" height="100" rx="10" ry="10"></rect></g><g transform="translate(722.5,654)"><rect fill="#FFF9E5" stroke-width="2" stroke="black" x="0" y="0" width="75" height="100" rx="10" ry="10"></rect></g><g transform="translate(722.5,858)"><rect fill="#FFF9E5" stroke-width="2" stroke="black" x="0" y="0" width="75" height="100" rx="10" ry="10"></rect></g><g transform="translate(799.5,42)"><rect fill="#FFF9E5" stroke-width="2" stroke="black" x="0" y="0" width="75" height="100" rx="10" ry="10"></rect></g><g transform="translate(799.5,246)"><rect fill="#FFF9E5" stroke-width="2" stroke="black" x="0" y="0" width="75" height="100" rx="10" ry="10"></rect></g><g transform="translate(799.5,705)"><rect fill="#FFF9E5" stroke-width="2" stroke="black" x="0" y="0" width="75" height="100" rx="10" ry="10"></rect></g><g transform="translate(799.5,858)"><rect fill="#FFF9E5" stroke-width="2" stroke="black" x="0" y="0" width="75" height="100" rx="10" ry="10"></rect></g><g transform="translate(876.5,42)"><rect fill="#FFF9E5" stroke-width="2" stroke="black" x="0" y="0" width="75" height="100" rx="10" ry="10"></rect></g><g transform="translate(876.5,144)"><rect fill="#FFF9E5" stroke-width="2" stroke="black" x="0" y="0" width="75" height="100" rx="10" ry="10"></rect></g><g transform="translate(876.5,756)"><rect fill="#FFF9E5" stroke-width="2" stroke="black" x="0" y="0" width="75" height="100" rx="10" ry="10"></rect></g><g transform="translate(876.5,858)"><rect fill="#FFF9E5" stroke-width="2" stroke="black" x="0" y="0" width="75" height="100" rx="10" ry="10"></rect></g><g transform="translate(953.5,42)"><rect fill="#FFF9E5" stroke-width="2" stroke="black" x="0" y="0" width="75" height="100" rx="10" ry="10"></rect></g><g transform="translate(953.5,144)"><rect fill="#FFF9E5" stroke-width="2" stroke="black" x="0" y="0" width="75" height="100" rx="10" ry="10"></rect></g><g transform="translate(953.5,246)"><rect fill="#FFF9E5" stroke-width="2" stroke="black" x="0" y="0" width="75" height="100" rx="10" ry="10"></rect></g><g transform="translate(953.5,348)"><rect fill="#FFF9E5" stroke-width="2" stroke="black" x="0" y="0" width="75" height="100" rx="10" ry="10"></rect></g><g transform="translate(953.5,450)"><rect fill="#FFF9E5" stroke-width="2" stroke="black" x="0" y="0" width="75" height="100" rx="10" ry="10"></rect></g><g transform="translate(953.5,552)"><rect fill="#FFF9E5" stroke-width="2" stroke="black" x="0" y="0" width="75" height="100" rx="10" ry="10"></rect></g><g transform="translate(953.5,654)"><rect fill="#FFF9E5" stroke-width="2" stroke="black" x="0" y="0" width="75" height="100" rx="10" ry="10"></rect></g><g transform="translate(953.5,756)"><rect fill="#FFF9E5" stroke-width="2" stroke="black" x="0" y="0" width="75" height="100" rx="10" ry="10"></rect></g><g transform="translate(953.5,858)"><rect fill="#FFF9E5" stroke-width="2" stroke="black" x="0" y="0" width="75" height="100" rx="10" ry="10"></rect></g></svg>