<svg xmlns="http://www.w3.org/2000/svg" viewBox="-26.5 -2 1024.5 884" preserveAspectRatio="xMidYMid meet" height="100%" width="100%"><g transform="translate(37.5,50)"><rect fill="#FFF9E5" stroke-width="2" stroke="black" x="0" y="0" width="75" height="100" rx="10" ry="10"></rect></g><g transform="translate(37.5,152)"><rect fill="#FFF9E5" stroke-width="2" stroke="black" x="0" y="0" width="75" height="100" rx="10" ry="10"></rect></g><g transform="translate(114.5,203)"><rect fill="#FFF9E5" stroke-width="2" stroke="black" x="0" y="0" width="75" height="100" rx="10" ry="10"></rect></g><g transform="translate(191.5,203)"><rect fill="#FFF9E5" stroke-width="2" stroke="black" x="0" y="0" width="75" height="100" rx="10" ry="10"></rect></g><g transform="translate(191.5,305)"><rect fill="#FFF9E5" stroke-width="2" stroke="black" x="0" y="0" width="75" height="100" rx="10" ry="10"></rect></g><g transform="translate(268.5,203)"><rect fill="#FFF9E5" stroke-width="2" stroke="black" x="0" y="0" width="75" height="100" rx="10" ry="10"></rect></g><g transform="translate(268.5,407)"><rect fill="#FFF9E5" stroke-width="2" stroke="black" x="0" y="0" width="75" height="100" rx="10" ry="10"></rect></g><g transform="translate(345.5,203)"><rect fill="#FFF9E5" stroke-width="2" stroke="black" x="0" y="0" width="75" height="100" rx="10" ry="10"></rect></g><g transform="translate(345.5,407)"><rect fill="#FFF9E5" stroke-width="2" stroke="black" x="0" y="0" width="75" height="100" rx="10" ry="10"></rect></g><g transform="translate(422.5,50)"><rect fill="#FFF9E5" stroke-width="2" stroke="black" x="0" y="0" width="75" height="100" rx="10" ry="10"></rect></g><g transform="translate(422.5,152)"><rect fill="#FFF9E5" stroke-width="2" stroke="black" x="0" y="0" width="75" height="100" rx="10" ry="10"></rect></g><g transform="translate(422.5,254)"><rect fill="#FFF9E5" stroke-width="2" stroke="black" x="0" y="0" width="75" height="100" rx="10" ry="10"></rect></g><g transform="translate(422.5,356)"><rect fill="#FFF9E5" stroke-width="2" stroke="black" x="0" y="0" width="75" height="100" rx="10" ry="10"></rect></g><g transform="translate(422.5,458)"><rect fill="#FFF9E5" stroke-width="2" stroke="black" x="0" y="0" width="75" height="100" rx="10" ry="10"></rect></g><g transform="translate(422.5,560)"><rect fill="#FFF9E5" stroke-width="2" stroke="black" x="0" y="0" width="75" height="100" rx="10" ry="10"></rect></g><g transform="translate(422.5,662)"><rect fill="#FFF9E5" stroke-width="2" stroke="black" x="0" y="0" width="75" height="100" rx="10" ry="10"></rect></g><g transform="translate(422.5,764)"><rect fill="#FFF9E5" stroke-width="2" stroke="black" x="0" y="0" width="75" height="100" rx="10" ry="10"></rect></g><g transform="translate(499.5,50)"><rect fill="#FFF9E5" stroke-width="2" stroke="black" x="0" y="0" width="75" height="100" rx="10" ry="10"></rect></g><g transform="translate(499.5,152)"><rect fill="#FFF9E5" stroke-width="2" stroke="black" x="0" y="0" width="75" height="100" rx="10" ry="10"></rect></g><g transform="translate(499.5,254)"><rect fill="#FFF9E5" stroke-width="2" stroke="black" x="0" y="0" width="75" height="100" rx="10" ry="10"></rect></g><g transform="translate(499.5,356)"><rect fill="#FFF9E5" stroke-width="2" stroke="black" x="0" y="0" width="75" height="100" rx="10" ry="10"></rect></g><g transform="translate(499.5,458)"><rect fill="#FFF9E5" stroke-width="2" stroke="black" x="0" y="0" width="75" height="100" rx="10" ry="10"></rect></g><g transform="translate(499.5,560)"><rect fill="#FFF9E5" stroke-width="2" stroke="black" x="0" y="0" width="75" height="100" rx="10" ry="10"></rect></g><g transform="translate(499.5,662)"><rect fill="#FFF9E5" stroke-width="2" stroke="black" x="0" y="0" width="75" height="100" rx="10" ry="10"></rect></g><g transform="translate(499.5,764)"><rect fill="#FFF9E5" stroke-width="2" stroke="black" x="0" y="0" width="75" height="100" rx="10" ry="10"></rect></g><g transform="translate(576.5,203)"><rect fill="#FFF9E5" stroke-width="2" stroke="black" x="0" y="0" width="75" height="100" rx="10" ry="10"></rect></g><g transform="translate(576.5,407)"><rect fill="#FFF9E5" stroke-width="2" stroke="black" x="0" y="0" width="75" height="100" rx="10" ry="10"></rect></g><g transform="translate(653.5,203)"><rect fill="#FFF9E5" stroke-width="2" stroke="black" x="0" y="0" width="75" height="100" rx="10" ry="10"></rect></g><g transform="translate(653.5,407)"><rect fill="#FFF9E5" stroke-width="2" stroke="black" x="0" y="0" width="75" height="100" rx="10" ry="10"></rect></g><g transform="translate(730.5,203)"><rect fill="#FFF9E5" stroke-width="2" stroke="black" x="0" y="0" width="75" height="100" rx="10" ry="10"></rect></g><g transform="translate(730.5,305)"><rect fill="#FFF9E5" stroke-width="2" stroke="black" x="0" y="0" width="75" height="100" rx="10" ry="10"></rect></g><g transform="translate(807.5,203)"><rect fill="#FFF9E5" stroke-width="2" stroke="black" x="0" y="0" width="75" height="100" rx="10" ry="10"></rect></g><g transform="translate(884.5,50)"><rect fill="#FFF9E5" stroke-width="2" stroke="black" x="0" y="0" width="75" height="100" rx="10" ry="10"></rect></g><g transform="translate(884.5,152)"><rect fill="#FFF9E5" stroke-width="2" stroke="black" x="0" y="0" width="75" height="100" rx="10" ry="10"></rect></g><g transform="translate(29.5,42)"><rect fill="#FFF9E5" stroke-width="2" stroke="black" x="0" y="0" width="75" height="100" rx="10" ry="10"></rect></g><g transform="translate(29.5,144)"><rect fill="#FFF9E5" stroke-width="2" stroke="black" x="0" y="0" width="75" height="100" rx="10" ry="10"></rect></g><g transform="translate(106.5,195)"><rect fill="#FFF9E5" stroke-width="2" stroke="black" x="0" y="0" width="75" height="100" rx="10" ry="10"></rect></g><g transform="translate(183.5,195)"><rect fill="#FFF9E5" stroke-width="2" stroke="black" x="0" y="0" width="75" height="100" rx="10" ry="10"></rect></g><g transform="translate(183.5,297)"><rect fill="#FFF9E5" stroke-width="2" stroke="black" x="0" y="0" width="75" height="100" rx="10" ry="10"></rect></g><g transform="translate(260.5,195)"><rect fill="#FFF9E5" stroke-width="2" stroke="black" x="0" y="0" width="75" height="100" rx="10" ry="10"></rect></g><g transform="translate(260.5,399)"><rect fill="#FFF9E5" stroke-width="2" stroke="black" x="0" y="0" width="75" height="100" rx="10" ry="10"></rect></g><g transform="translate(337.5,195)"><rect fill="#FFF9E5" stroke-width="2" stroke="black" x="0" y="0" width="75" height="100" rx="10" ry="10"></rect></g><g transform="translate(337.5,399)"><rect fill="#FFF9E5" stroke-width="2" stroke="black" x="0" y="0" width="75" height="100" rx="10" ry="10"></rect></g><g transform="translate(414.5,42)"><rect fill="#FFF9E5" stroke-width="2" stroke="black" x="0" y="0" width="75" height="100" rx="10" ry="10"></rect></g><g transform="translate(414.5,144)"><rect fill="#FFF9E5" stroke-width="2" stroke="black" x="0" y="0" width="75" height="100" rx="10" ry="10"></rect></g><g transform="translate(414.5,246)"><rect fill="#FFF9E5" stroke-width="2" stroke="black" x="0" y="0" width="75" height="100" rx="10" ry="10"></rect></g><g transform="translate(414.5,348)"><rect fill="#FFF9E5" stroke-width="2" stroke="black" x="0" y="0" width="75" height="100" rx="10" ry="10"></rect></g><g transform="translate(414.5,450)"><rect fill="#FFF9E5" stroke-width="2" stroke="black" x="0" y="0" width="75" height="100" rx="10" ry="10"></rect></g><g transform="translate(414.5,552)"><rect fill="#FFF9E5" stroke-width="2" stroke="black" x="0" y="0" width="75" height="100" rx="10" ry="10"></rect></g><g transform="translate(414.5,654)"><rect fill="#FFF9E5" stroke-width="2" stroke="black" x="0" y="0" width="75" height="100" rx="10" ry="10"></rect></g><g transform="translate(414.5,756)"><rect fill="#FFF9E5" stroke-width="2" stroke="black" x="0" y="0" width="75" height="100" rx="10" ry="10"></rect></g><g transform="translate(491.5,42)"><rect fill="#FFF9E5" stroke-width="2" stroke="black" x="0" y="0" width="75" height="100" rx="10" ry="10"></rect></g><g transform="translate(491.5,144)"><rect fill="#FFF9E5" stroke-width="2" stroke="black" x="0" y="0" width="75" height="100" rx="10" ry="10"></rect></g><g transform="translate(491.5,246)"><rect fill="#FFF9E5" stroke-width="2" stroke="black" x="0" y="0" width="75" height="100" rx="10" ry="10"></rect></g><g transform="translate(491.5,348)"><rect fill="#FFF9E5" stroke-width="2" stroke="black" x="0" y="0" width="75" height="100" rx="10" ry="10"></rect></g><g transform="translate(491.5,450)"><rect fill="#FFF9E5" stroke-width="2" stroke="black" x="0" y="0" width="75" height="100" rx="10" ry="10"></rect></g><g transform="translate(491.5,552)"><rect fill="#FFF9E5" stroke-width="2" stroke="black" x="0" y="0" width="75" height="100" rx="10" ry="10"></rect></g><g transform="translate(491.5,654)"><rect fill="#FFF9E5" stroke-width="2" stroke="black" x="0" y="0" width="75" height="100" rx="10" ry="10"></rect></g><g transform="translate(491.5,756)"><rect fill="#FFF9E5" stroke-width="2" stroke="black" x="0" y="0" width="75" height="100" rx="10" ry="10"></rect></g><g transform="translate(568.5,195)"><rect fill="#FFF9E5" stroke-width="2" stroke="black" x="0" y="0" width="75" height="100" rx="10" ry="10"></rect></g><g transform="translate(568.5,399)"><rect fill="#FFF9E5" stroke-width="2" stroke="black" x="0" y="0" width="75" height="100" rx="10" ry="10"></rect></g><g transform="translate(645.5,195)"><rect fill="#FFF9E5" stroke-width="2" stroke="black" x="0" y="0" width="75" height="100" rx="10" ry="10"></rect></g><g transform="translate(645.5,399)"><rect fill="#FFF9E5" stroke-width="2" stroke="black" x="0" y="0" width="75" height="100" rx="10" ry="10"></rect></g><g transform="translate(722.5,195)"><rect fill="#FFF9E5" stroke-width="2" stroke="black" x="0" y="0" width="75" height="100" rx="10" ry="10"></rect></g><g transform="translate(722.5,297)"><rect fill="#FFF9E5" stroke-width="2" stroke="black" x="0" y="0" width="75" height="100" rx="10" ry="10"></rect></g><g transform="translate(799.5,195)"><rect fill="#FFF9E5" stroke-width="2" stroke="black" x="0" y="0" width="75" height="100" rx="10" ry="10"></rect></g><g transform="translate(876.5,42)"><rect fill="#FFF9E5" stroke-width="2" stroke="black" x="0" y="0" width="75" height="100" rx="10" ry="10"></rect></g><g transform="translate(876.5,144)"><rect fill="#FFF9E5" stroke-width="2" stroke="black" x="0" y="0" width="75" height="100" rx="10" ry="10"></rect></g><g transform="translate(21.5,34)"><rect fill="#FFF9E5" stroke-width="2" stroke="black" x="0" y="0" width="75" height="100" rx="10" ry="10"></rect></g><g transform="translate(21.5,136)"><rect fill="#FFF9E5" stroke-width="2" stroke="black" x="0" y="0" width="75" height="100" rx="10" ry="10"></rect></g><g transform="translate(98.5,187)"><rect fill="#FFF9E5" stroke-width="2" stroke="black" x="0" y="0" width="75" height="100" rx="10" ry="10"></rect></g><g transform="translate(175.5,187)"><rect fill="#FFF9E5" stroke-width="2" stroke="black" x="0" y="0" width="75" height="100" rx="10" ry="10"></rect></g><g transform="translate(175.5,289)"><rect fill="#FFF9E5" stroke-width="2" stroke="black" x="0" y="0" width="75" height="100" rx="10" ry="10"></rect></g><g transform="translate(252.5,187)"><rect fill="#FFF9E5" stroke-width="2" stroke="black" x="0" y="0" width="75" height="100" rx="10" ry="10"></rect></g><g transform="translate(252.5,391)"><rect fill="#FFF9E5" stroke-width="2" stroke="black" x="0" y="0" width="75" height="100" rx="10" ry="10"></rect></g><g transform="translate(329.5,187)"><rect fill="#FFF9E5" stroke-width="2" stroke="black" x="0" y="0" width="75" height="100" rx="10" ry="10"></rect></g><g transform="translate(329.5,391)"><rect fill="#FFF9E5" stroke-width="2" stroke="black" x="0" y="0" width="75" height="100" rx="10" ry="10"></rect></g><g transform="translate(406.5,34)"><rect fill="#FFF9E5" stroke-width="2" stroke="black" x="0" y="0" width="75" height="100" rx="10" ry="10"></rect></g><g transform="translate(406.5,136)"><rect fill="#FFF9E5" stroke-width="2" stroke="black" x="0" y="0" width="75" height="100" rx="10" ry="10"></rect></g><g transform="translate(406.5,238)"><rect fill="#FFF9E5" stroke-width="2" stroke="black" x="0" y="0" width="75" height="100" rx="10" ry="10"></rect></g><g transform="translate(406.5,340)"><rect fill="#FFF9E5" stroke-width="2" stroke="black" x="0" y="0" width="75" height="100" rx="10" ry="10"></rect></g><g transform="translate(406.5,442)"><rect fill="#FFF9E5" stroke-width="2" stroke="black" x="0" y="0" width="75" height="100" rx="10" ry="10"></rect></g><g transform="translate(406.5,544)"><rect fill="#FFF9E5" stroke-width="2" stroke="black" x="0" y="0" width="75" height="100" rx="10" ry="10"></rect></g><g transform="translate(406.5,646)"><rect fill="#FFF9E5" stroke-width="2" stroke="black" x="0" y="0" width="75" height="100" rx="10" ry="10"></rect></g><g transform="translate(406.5,748)"><rect fill="#FFF9E5" stroke-width="2" stroke="black" x="0" y="0" width="75" height="100" rx="10" ry="10"></rect></g><g transform="translate(483.5,34)"><rect fill="#FFF9E5" stroke-width="2" stroke="black" x="0" y="0" width="75" height="100" rx="10" ry="10"></rect></g><g transform="translate(483.5,136)"><rect fill="#FFF9E5" stroke-width="2" stroke="black" x="0" y="0" width="75" height="100" rx="10" ry="10"></rect></g><g transform="translate(483.5,238)"><rect fill="#FFF9E5" stroke-width="2" stroke="black" x="0" y="0" width="75" height="100" rx="10" ry="10"></rect></g><g transform="translate(483.5,340)"><rect fill="#FFF9E5" stroke-width="2" stroke="black" x="0" y="0" width="75" height="100" rx="10" ry="10"></rect></g><g transform="translate(483.5,442)"><rect fill="#FFF9E5" stroke-width="2" stroke="black" x="0" y="0" width="75" height="100" rx="10" ry="10"></rect></g><g transform="translate(483.5,544)"><rect fill="#FFF9E5" stroke-width="2" stroke="black" x="0" y="0" width="75" height="100" rx="10" ry="10"></rect></g><g transform="translate(483.5,646)"><rect fill="#FFF9E5" stroke-width="2" stroke="black" x="0" y="0" width="75" height="100" rx="10" ry="10"></rect></g><g transform="translate(483.5,748)"><rect fill="#FFF9E5" stroke-width="2" stroke="black" x="0" y="0" width="75" height="100" rx="10" ry="10"></rect></g><g transform="translate(560.5,187)"><rect fill="#FFF9E5" stroke-width="2" stroke="black" x="0" y="0" width="75" height="100" rx="10" ry="10"></rect></g><g transform="translate(560.5,391)"><rect fill="#FFF9E5" stroke-width="2" stroke="black" x="0" y="0" width="75" height="100" rx="10" ry="10"></rect></g><g transform="translate(637.5,187)"><rect fill="#FFF9E5" stroke-width="2" stroke="black" x="0" y="0" width="75" height="100" rx="10" ry="10"></rect></g><g transform="translate(637.5,391)"><rect fill="#FFF9E5" stroke-width="2" stroke="black" x="0" y="0" width="75" height="100" rx="10" ry="10"></rect></g><g transform="translate(714.5,187)"><rect fill="#FFF9E5" stroke-width="2" stroke="black" x="0" y="0" width="75" height="100" rx="10" ry="10"></rect></g><g transform="translate(714.5,289)"><rect fill="#FFF9E5" stroke-width="2" stroke="black" x="0" y="0" width="75" height="100" rx="10" ry="10"></rect></g><g transform="translate(791.5,187)"><rect fill="#FFF9E5" stroke-width="2" stroke="black" x="0" y="0" width="75" height="100" rx="10" ry="10"></rect></g><g transform="translate(868.5,34)"><rect fill="#FFF9E5" stroke-width="2" stroke="black" x="0" y="0" width="75" height="100" rx="10" ry="10"></rect></g><g transform="translate(868.5,136)"><rect fill="#FFF9E5" stroke-width="2" stroke="black" x="0" y="0" width="75" height="100" rx="10" ry="10"></rect></g><g transform="translate(13.5,26)"><rect fill="#FFF9E5" stroke-width="2" stroke="black" x="0" y="0" width="75" height="100" rx="10" ry="10"></rect></g><g transform="translate(13.5,128)"><rect fill="#FFF9E5" stroke-width="2" stroke="black" x="0" y="0" width="75" height="100" rx="10" ry="10"></rect></g><g transform="translate(90.5,179)"><rect fill="#FFF9E5" stroke-width="2" stroke="black" x="0" y="0" width="75" height="100" rx="10" ry="10"></rect></g><g transform="translate(167.5,179)"><rect fill="#FFF9E5" stroke-width="2" stroke="black" x="0" y="0" width="75" height="100" rx="10" ry="10"></rect></g><g transform="translate(167.5,281)"><rect fill="#FFF9E5" stroke-width="2" stroke="black" x="0" y="0" width="75" height="100" rx="10" ry="10"></rect></g><g transform="translate(244.5,179)"><rect fill="#FFF9E5" stroke-width="2" stroke="black" x="0" y="0" width="75" height="100" rx="10" ry="10"></rect></g><g transform="translate(244.5,383)"><rect fill="#FFF9E5" stroke-width="2" stroke="black" x="0" y="0" width="75" height="100" rx="10" ry="10"></rect></g><g transform="translate(321.5,179)"><rect fill="#FFF9E5" stroke-width="2" stroke="black" x="0" y="0" width="75" height="100" rx="10" ry="10"></rect></g><g transform="translate(321.5,383)"><rect fill="#FFF9E5" stroke-width="2" stroke="black" x="0" y="0" width="75" height="100" rx="10" ry="10"></rect></g><g transform="translate(398.5,26)"><rect fill="#FFF9E5" stroke-width="2" stroke="black" x="0" y="0" width="75" height="100" rx="10" ry="10"></rect></g><g transform="translate(398.5,128)"><rect fill="#FFF9E5" stroke-width="2" stroke="black" x="0" y="0" width="75" height="100" rx="10" ry="10"></rect></g><g transform="translate(398.5,230)"><rect fill="#FFF9E5" stroke-width="2" stroke="black" x="0" y="0" width="75" height="100" rx="10" ry="10"></rect></g><g transform="translate(398.5,332)"><rect fill="#FFF9E5" stroke-width="2" stroke="black" x="0" y="0" width="75" height="100" rx="10" ry="10"></rect></g><g transform="translate(398.5,434)"><rect fill="#FFF9E5" stroke-width="2" stroke="black" x="0" y="0" width="75" height="100" rx="10" ry="10"></rect></g><g transform="translate(398.5,536)"><rect fill="#FFF9E5" stroke-width="2" stroke="black" x="0" y="0" width="75" height="100" rx="10" ry="10"></rect></g><g transform="translate(398.5,638)"><rect fill="#FFF9E5" stroke-width="2" stroke="black" x="0" y="0" width="75" height="100" rx="10" ry="10"></rect></g><g transform="translate(398.5,740)"><rect fill="#FFF9E5" stroke-width="2" stroke="black" x="0" y="0" width="75" height="100" rx="10" ry="10"></rect></g><g transform="translate(475.5,26)"><rect fill="#FFF9E5" stroke-width="2" stroke="black" x="0" y="0" width="75" height="100" rx="10" ry="10"></rect></g><g transform="translate(475.5,128)"><rect fill="#FFF9E5" stroke-width="2" stroke="black" x="0" y="0" width="75" height="100" rx="10" ry="10"></rect></g><g transform="translate(475.5,230)"><rect fill="#FFF9E5" stroke-width="2" stroke="black" x="0" y="0" width="75" height="100" rx="10" ry="10"></rect></g><g transform="translate(475.5,332)"><rect fill="#FFF9E5" stroke-width="2" stroke="black" x="0" y="0" width="75" height="100" rx="10" ry="10"></rect></g><g transform="translate(475.5,434)"><rect fill="#FFF9E5" stroke-width="2" stroke="black" x="0" y="0" width="75" height="100" rx="10" ry="10"></rect></g><g transform="translate(475.5,536)"><rect fill="#FFF9E5" stroke-width="2" stroke="black" x="0" y="0" width="75" height="100" rx="10" ry="10"></rect></g><g transform="translate(475.5,638)"><rect fill="#FFF9E5" stroke-width="2" stroke="black" x="0" y="0" width="75" height="100" rx="10" ry="10"></rect></g><g transform="translate(475.5,740)"><rect fill="#FFF9E5" stroke-width="2" stroke="black" x="0" y="0" width="75" height="100" rx="10" ry="10"></rect></g><g transform="translate(552.5,179)"><rect fill="#FFF9E5" stroke-width="2" stroke="black" x="0" y="0" width="75" height="100" rx="10" ry="10"></rect></g><g transform="translate(552.5,383)"><rect fill="#FFF9E5" stroke-width="2" stroke="black" x="0" y="0" width="75" height="100" rx="10" ry="10"></rect></g><g transform="translate(629.5,179)"><rect fill="#FFF9E5" stroke-width="2" stroke="black" x="0" y="0" width="75" height="100" rx="10" ry="10"></rect></g><g transform="translate(629.5,383)"><rect fill="#FFF9E5" stroke-width="2" stroke="black" x="0" y="0" width="75" height="100" rx="10" ry="10"></rect></g><g transform="translate(706.5,179)"><rect fill="#FFF9E5" stroke-width="2" stroke="black" x="0" y="0" width="75" height="100" rx="10" ry="10"></rect></g><g transform="translate(706.5,281)"><rect fill="#FFF9E5" stroke-width="2" stroke="black" x="0" y="0" width="75" height="100" rx="10" ry="10"></rect></g><g transform="translate(783.5,179)"><rect fill="#FFF9E5" stroke-width="2" stroke="black" x="0" y="0" width="75" height="100" rx="10" ry="10"></rect></g><g transform="translate(860.5,26)"><rect fill="#FFF9E5" stroke-width="2" stroke="black" x="0" y="0" width="75" height="100" rx="10" ry="10"></rect></g><g transform="translate(860.5,128)"><rect fill="#FFF9E5" stroke-width="2" stroke="black" x="0" y="0" width="75" height="100" rx="10" ry="10"></rect></g><g transform="translate(429,18)"><rect fill="#FFF9E5" stroke-width="2" stroke="black" x="0" y="0" width="75" height="100" rx="10" ry="10"></rect></g><g transform="translate(429,120)"><rect fill="#FFF9E5" stroke-width="2" stroke="black" x="0" y="0" width="75" height="100" rx="10" ry="10"></rect></g><g transform="translate(429,222)"><rect fill="#FFF9E5" stroke-width="2" stroke="black" x="0" y="0" width="75" height="100" rx="10" ry="10"></rect></g><g transform="translate(429,324)"><rect fill="#FFF9E5" stroke-width="2" stroke="black" x="0" y="0" width="75" height="100" rx="10" ry="10"></rect></g><g transform="translate(429,426)"><rect fill="#FFF9E5" stroke-width="2" stroke="black" x="0" y="0" width="75" height="100" rx="10" ry="10"></rect></g><g transform="translate(429,528)"><rect fill="#FFF9E5" stroke-width="2" stroke="black" x="0" y="0" width="75" height="100" rx="10" ry="10"></rect></g><g transform="translate(429,630)"><rect fill="#FFF9E5" stroke-width="2" stroke="black" x="0" y="0" width="75" height="100" rx="10" ry="10"></rect></g><g transform="translate(429,732)"><rect fill="#FFF9E5" stroke-width="2" stroke="black" x="0" y="0" width="75" height="100" rx="10" ry="10"></rect></g></svg>