<svg xmlns="http://www.w3.org/2000/svg" viewBox="-44 -36 704 1049" preserveAspectRatio="xMidYMid meet" height="100%" width="100%"><g transform="translate(154,51)"><rect fill="#FFF9E5" stroke-width="2" stroke="black" x="0" y="0" width="75" height="100" rx="10" ry="10"></rect></g><g transform="translate(231,51)"><rect fill="#FFF9E5" stroke-width="2" stroke="black" x="0" y="0" width="75" height="100" rx="10" ry="10"></rect></g><g transform="translate(115.5,204)"><rect fill="#FFF9E5" stroke-width="2" stroke="black" x="0" y="0" width="75" height="100" rx="10" ry="10"></rect></g><g transform="translate(308,0)"><rect fill="#FFF9E5" stroke-width="2" stroke="black" x="0" y="0" width="75" height="100" rx="10" ry="10"></rect></g><g transform="translate(192.5,204)"><rect fill="#FFF9E5" stroke-width="2" stroke="black" x="0" y="0" width="75" height="100" rx="10" ry="10"></rect></g><g transform="translate(77,408)"><rect fill="#FFF9E5" stroke-width="2" stroke="black" x="0" y="0" width="75" height="100" rx="10" ry="10"></rect></g><g transform="translate(385,51)"><rect fill="#FFF9E5" stroke-width="2" stroke="black" x="0" y="0" width="75" height="100" rx="10" ry="10"></rect></g><g transform="translate(269.5,204)"><rect fill="#FFF9E5" stroke-width="2" stroke="black" x="0" y="0" width="75" height="100" rx="10" ry="10"></rect></g><g transform="translate(154,357)"><rect fill="#FFF9E5" stroke-width="2" stroke="black" x="0" y="0" width="75" height="100" rx="10" ry="10"></rect></g><g transform="translate(77,510)"><rect fill="#FFF9E5" stroke-width="2" stroke="black" x="0" y="0" width="75" height="100" rx="10" ry="10"></rect></g><g transform="translate(462,51)"><rect fill="#FFF9E5" stroke-width="2" stroke="black" x="0" y="0" width="75" height="100" rx="10" ry="10"></rect></g><g transform="translate(231,357)"><rect fill="#FFF9E5" stroke-width="2" stroke="black" x="0" y="0" width="75" height="100" rx="10" ry="10"></rect></g><g transform="translate(77,612)"><rect fill="#FFF9E5" stroke-width="2" stroke="black" x="0" y="0" width="75" height="100" rx="10" ry="10"></rect></g><g transform="translate(308,357)"><rect fill="#FFF9E5" stroke-width="2" stroke="black" x="0" y="0" width="75" height="100" rx="10" ry="10"></rect></g><g transform="translate(231,459)"><rect fill="#FFF9E5" stroke-width="2" stroke="black" x="0" y="0" width="75" height="100" rx="10" ry="10"></rect></g><g transform="translate(154,561)"><rect fill="#FFF9E5" stroke-width="2" stroke="black" x="0" y="0" width="75" height="100" rx="10" ry="10"></rect></g><g transform="translate(539,102)"><rect fill="#FFF9E5" stroke-width="2" stroke="black" x="0" y="0" width="75" height="100" rx="10" ry="10"></rect></g><g transform="translate(385,306)"><rect fill="#FFF9E5" stroke-width="2" stroke="black" x="0" y="0" width="75" height="100" rx="10" ry="10"></rect></g><g transform="translate(77,714)"><rect fill="#FFF9E5" stroke-width="2" stroke="black" x="0" y="0" width="75" height="100" rx="10" ry="10"></rect></g><g transform="translate(462,255)"><rect fill="#FFF9E5" stroke-width="2" stroke="black" x="0" y="0" width="75" height="100" rx="10" ry="10"></rect></g><g transform="translate(231,561)"><rect fill="#FFF9E5" stroke-width="2" stroke="black" x="0" y="0" width="75" height="100" rx="10" ry="10"></rect></g><g transform="translate(0,867)"><rect fill="#FFF9E5" stroke-width="2" stroke="black" x="0" y="0" width="75" height="100" rx="10" ry="10"></rect></g><g transform="translate(539,204)"><rect fill="#FFF9E5" stroke-width="2" stroke="black" x="0" y="0" width="75" height="100" rx="10" ry="10"></rect></g><g transform="translate(385,408)"><rect fill="#FFF9E5" stroke-width="2" stroke="black" x="0" y="0" width="75" height="100" rx="10" ry="10"></rect></g><g transform="translate(77,816)"><rect fill="#FFF9E5" stroke-width="2" stroke="black" x="0" y="0" width="75" height="100" rx="10" ry="10"></rect></g><g transform="translate(308,561)"><rect fill="#FFF9E5" stroke-width="2" stroke="black" x="0" y="0" width="75" height="100" rx="10" ry="10"></rect></g><g transform="translate(231,663)"><rect fill="#FFF9E5" stroke-width="2" stroke="black" x="0" y="0" width="75" height="100" rx="10" ry="10"></rect></g><g transform="translate(154,765)"><rect fill="#FFF9E5" stroke-width="2" stroke="black" x="0" y="0" width="75" height="100" rx="10" ry="10"></rect></g><g transform="translate(385,510)"><rect fill="#FFF9E5" stroke-width="2" stroke="black" x="0" y="0" width="75" height="100" rx="10" ry="10"></rect></g><g transform="translate(462,459)"><rect fill="#FFF9E5" stroke-width="2" stroke="black" x="0" y="0" width="75" height="100" rx="10" ry="10"></rect></g><g transform="translate(231,765)"><rect fill="#FFF9E5" stroke-width="2" stroke="black" x="0" y="0" width="75" height="100" rx="10" ry="10"></rect></g><g transform="translate(385,612)"><rect fill="#FFF9E5" stroke-width="2" stroke="black" x="0" y="0" width="75" height="100" rx="10" ry="10"></rect></g><g transform="translate(308,765)"><rect fill="#FFF9E5" stroke-width="2" stroke="black" x="0" y="0" width="75" height="100" rx="10" ry="10"></rect></g><g transform="translate(385,714)"><rect fill="#FFF9E5" stroke-width="2" stroke="black" x="0" y="0" width="75" height="100" rx="10" ry="10"></rect></g><g transform="translate(385,816)"><rect fill="#FFF9E5" stroke-width="2" stroke="black" x="0" y="0" width="75" height="100" rx="10" ry="10"></rect></g><g transform="translate(462,867)"><rect fill="#FFF9E5" stroke-width="2" stroke="black" x="0" y="0" width="75" height="100" rx="10" ry="10"></rect></g><g transform="translate(-8,859)"><rect fill="#FFF9E5" stroke-width="2" stroke="black" x="0" y="0" width="75" height="100" rx="10" ry="10"></rect></g><g transform="translate(69,400)"><rect fill="#FFF9E5" stroke-width="2" stroke="black" x="0" y="0" width="75" height="100" rx="10" ry="10"></rect></g><g transform="translate(69,502)"><rect fill="#FFF9E5" stroke-width="2" stroke="black" x="0" y="0" width="75" height="100" rx="10" ry="10"></rect></g><g transform="translate(69,604)"><rect fill="#FFF9E5" stroke-width="2" stroke="black" x="0" y="0" width="75" height="100" rx="10" ry="10"></rect></g><g transform="translate(69,706)"><rect fill="#FFF9E5" stroke-width="2" stroke="black" x="0" y="0" width="75" height="100" rx="10" ry="10"></rect></g><g transform="translate(69,808)"><rect fill="#FFF9E5" stroke-width="2" stroke="black" x="0" y="0" width="75" height="100" rx="10" ry="10"></rect></g><g transform="translate(107.5,196)"><rect fill="#FFF9E5" stroke-width="2" stroke="black" x="0" y="0" width="75" height="100" rx="10" ry="10"></rect></g><g transform="translate(146,43)"><rect fill="#FFF9E5" stroke-width="2" stroke="black" x="0" y="0" width="75" height="100" rx="10" ry="10"></rect></g><g transform="translate(146,349)"><rect fill="#FFF9E5" stroke-width="2" stroke="black" x="0" y="0" width="75" height="100" rx="10" ry="10"></rect></g><g transform="translate(146,553)"><rect fill="#FFF9E5" stroke-width="2" stroke="black" x="0" y="0" width="75" height="100" rx="10" ry="10"></rect></g><g transform="translate(146,757)"><rect fill="#FFF9E5" stroke-width="2" stroke="black" x="0" y="0" width="75" height="100" rx="10" ry="10"></rect></g><g transform="translate(184.5,196)"><rect fill="#FFF9E5" stroke-width="2" stroke="black" x="0" y="0" width="75" height="100" rx="10" ry="10"></rect></g><g transform="translate(223,43)"><rect fill="#FFF9E5" stroke-width="2" stroke="black" x="0" y="0" width="75" height="100" rx="10" ry="10"></rect></g><g transform="translate(223,349)"><rect fill="#FFF9E5" stroke-width="2" stroke="black" x="0" y="0" width="75" height="100" rx="10" ry="10"></rect></g><g transform="translate(223,451)"><rect fill="#FFF9E5" stroke-width="2" stroke="black" x="0" y="0" width="75" height="100" rx="10" ry="10"></rect></g><g transform="translate(223,553)"><rect fill="#FFF9E5" stroke-width="2" stroke="black" x="0" y="0" width="75" height="100" rx="10" ry="10"></rect></g><g transform="translate(223,655)"><rect fill="#FFF9E5" stroke-width="2" stroke="black" x="0" y="0" width="75" height="100" rx="10" ry="10"></rect></g><g transform="translate(223,757)"><rect fill="#FFF9E5" stroke-width="2" stroke="black" x="0" y="0" width="75" height="100" rx="10" ry="10"></rect></g><g transform="translate(261.5,196)"><rect fill="#FFF9E5" stroke-width="2" stroke="black" x="0" y="0" width="75" height="100" rx="10" ry="10"></rect></g><g transform="translate(300,43)"><rect fill="#FFF9E5" stroke-width="2" stroke="black" x="0" y="0" width="75" height="100" rx="10" ry="10"></rect></g><g transform="translate(300,349)"><rect fill="#FFF9E5" stroke-width="2" stroke="black" x="0" y="0" width="75" height="100" rx="10" ry="10"></rect></g><g transform="translate(300,553)"><rect fill="#FFF9E5" stroke-width="2" stroke="black" x="0" y="0" width="75" height="100" rx="10" ry="10"></rect></g><g transform="translate(300,757)"><rect fill="#FFF9E5" stroke-width="2" stroke="black" x="0" y="0" width="75" height="100" rx="10" ry="10"></rect></g><g transform="translate(377,43)"><rect fill="#FFF9E5" stroke-width="2" stroke="black" x="0" y="0" width="75" height="100" rx="10" ry="10"></rect></g><g transform="translate(377,298)"><rect fill="#FFF9E5" stroke-width="2" stroke="black" x="0" y="0" width="75" height="100" rx="10" ry="10"></rect></g><g transform="translate(377,400)"><rect fill="#FFF9E5" stroke-width="2" stroke="black" x="0" y="0" width="75" height="100" rx="10" ry="10"></rect></g><g transform="translate(377,502)"><rect fill="#FFF9E5" stroke-width="2" stroke="black" x="0" y="0" width="75" height="100" rx="10" ry="10"></rect></g><g transform="translate(377,604)"><rect fill="#FFF9E5" stroke-width="2" stroke="black" x="0" y="0" width="75" height="100" rx="10" ry="10"></rect></g><g transform="translate(377,706)"><rect fill="#FFF9E5" stroke-width="2" stroke="black" x="0" y="0" width="75" height="100" rx="10" ry="10"></rect></g><g transform="translate(377,808)"><rect fill="#FFF9E5" stroke-width="2" stroke="black" x="0" y="0" width="75" height="100" rx="10" ry="10"></rect></g><g transform="translate(454,43)"><rect fill="#FFF9E5" stroke-width="2" stroke="black" x="0" y="0" width="75" height="100" rx="10" ry="10"></rect></g><g transform="translate(454,247)"><rect fill="#FFF9E5" stroke-width="2" stroke="black" x="0" y="0" width="75" height="100" rx="10" ry="10"></rect></g><g transform="translate(454,451)"><rect fill="#FFF9E5" stroke-width="2" stroke="black" x="0" y="0" width="75" height="100" rx="10" ry="10"></rect></g><g transform="translate(454,859)"><rect fill="#FFF9E5" stroke-width="2" stroke="black" x="0" y="0" width="75" height="100" rx="10" ry="10"></rect></g><g transform="translate(531,94)"><rect fill="#FFF9E5" stroke-width="2" stroke="black" x="0" y="0" width="75" height="100" rx="10" ry="10"></rect></g><g transform="translate(531,196)"><rect fill="#FFF9E5" stroke-width="2" stroke="black" x="0" y="0" width="75" height="100" rx="10" ry="10"></rect></g><g transform="translate(-16,851)"><rect fill="#FFF9E5" stroke-width="2" stroke="black" x="0" y="0" width="75" height="100" rx="10" ry="10"></rect></g><g transform="translate(61,392)"><rect fill="#FFF9E5" stroke-width="2" stroke="black" x="0" y="0" width="75" height="100" rx="10" ry="10"></rect></g><g transform="translate(61,494)"><rect fill="#FFF9E5" stroke-width="2" stroke="black" x="0" y="0" width="75" height="100" rx="10" ry="10"></rect></g><g transform="translate(61,596)"><rect fill="#FFF9E5" stroke-width="2" stroke="black" x="0" y="0" width="75" height="100" rx="10" ry="10"></rect></g><g transform="translate(61,698)"><rect fill="#FFF9E5" stroke-width="2" stroke="black" x="0" y="0" width="75" height="100" rx="10" ry="10"></rect></g><g transform="translate(61,800)"><rect fill="#FFF9E5" stroke-width="2" stroke="black" x="0" y="0" width="75" height="100" rx="10" ry="10"></rect></g><g transform="translate(99.5,188)"><rect fill="#FFF9E5" stroke-width="2" stroke="black" x="0" y="0" width="75" height="100" rx="10" ry="10"></rect></g><g transform="translate(138,35)"><rect fill="#FFF9E5" stroke-width="2" stroke="black" x="0" y="0" width="75" height="100" rx="10" ry="10"></rect></g><g transform="translate(138,341)"><rect fill="#FFF9E5" stroke-width="2" stroke="black" x="0" y="0" width="75" height="100" rx="10" ry="10"></rect></g><g transform="translate(138,545)"><rect fill="#FFF9E5" stroke-width="2" stroke="black" x="0" y="0" width="75" height="100" rx="10" ry="10"></rect></g><g transform="translate(138,749)"><rect fill="#FFF9E5" stroke-width="2" stroke="black" x="0" y="0" width="75" height="100" rx="10" ry="10"></rect></g><g transform="translate(176.5,188)"><rect fill="#FFF9E5" stroke-width="2" stroke="black" x="0" y="0" width="75" height="100" rx="10" ry="10"></rect></g><g transform="translate(215,35)"><rect fill="#FFF9E5" stroke-width="2" stroke="black" x="0" y="0" width="75" height="100" rx="10" ry="10"></rect></g><g transform="translate(215,341)"><rect fill="#FFF9E5" stroke-width="2" stroke="black" x="0" y="0" width="75" height="100" rx="10" ry="10"></rect></g><g transform="translate(215,443)"><rect fill="#FFF9E5" stroke-width="2" stroke="black" x="0" y="0" width="75" height="100" rx="10" ry="10"></rect></g><g transform="translate(215,545)"><rect fill="#FFF9E5" stroke-width="2" stroke="black" x="0" y="0" width="75" height="100" rx="10" ry="10"></rect></g><g transform="translate(215,647)"><rect fill="#FFF9E5" stroke-width="2" stroke="black" x="0" y="0" width="75" height="100" rx="10" ry="10"></rect></g><g transform="translate(215,749)"><rect fill="#FFF9E5" stroke-width="2" stroke="black" x="0" y="0" width="75" height="100" rx="10" ry="10"></rect></g><g transform="translate(253.5,188)"><rect fill="#FFF9E5" stroke-width="2" stroke="black" x="0" y="0" width="75" height="100" rx="10" ry="10"></rect></g><g transform="translate(292,-16)"><rect fill="#FFF9E5" stroke-width="2" stroke="black" x="0" y="0" width="75" height="100" rx="10" ry="10"></rect></g><g transform="translate(292,341)"><rect fill="#FFF9E5" stroke-width="2" stroke="black" x="0" y="0" width="75" height="100" rx="10" ry="10"></rect></g><g transform="translate(292,545)"><rect fill="#FFF9E5" stroke-width="2" stroke="black" x="0" y="0" width="75" height="100" rx="10" ry="10"></rect></g><g transform="translate(292,749)"><rect fill="#FFF9E5" stroke-width="2" stroke="black" x="0" y="0" width="75" height="100" rx="10" ry="10"></rect></g><g transform="translate(369,35)"><rect fill="#FFF9E5" stroke-width="2" stroke="black" x="0" y="0" width="75" height="100" rx="10" ry="10"></rect></g><g transform="translate(369,290)"><rect fill="#FFF9E5" stroke-width="2" stroke="black" x="0" y="0" width="75" height="100" rx="10" ry="10"></rect></g><g transform="translate(369,392)"><rect fill="#FFF9E5" stroke-width="2" stroke="black" x="0" y="0" width="75" height="100" rx="10" ry="10"></rect></g><g transform="translate(369,494)"><rect fill="#FFF9E5" stroke-width="2" stroke="black" x="0" y="0" width="75" height="100" rx="10" ry="10"></rect></g><g transform="translate(369,596)"><rect fill="#FFF9E5" stroke-width="2" stroke="black" x="0" y="0" width="75" height="100" rx="10" ry="10"></rect></g><g transform="translate(369,698)"><rect fill="#FFF9E5" stroke-width="2" stroke="black" x="0" y="0" width="75" height="100" rx="10" ry="10"></rect></g><g transform="translate(369,800)"><rect fill="#FFF9E5" stroke-width="2" stroke="black" x="0" y="0" width="75" height="100" rx="10" ry="10"></rect></g><g transform="translate(446,35)"><rect fill="#FFF9E5" stroke-width="2" stroke="black" x="0" y="0" width="75" height="100" rx="10" ry="10"></rect></g><g transform="translate(446,239)"><rect fill="#FFF9E5" stroke-width="2" stroke="black" x="0" y="0" width="75" height="100" rx="10" ry="10"></rect></g><g transform="translate(446,443)"><rect fill="#FFF9E5" stroke-width="2" stroke="black" x="0" y="0" width="75" height="100" rx="10" ry="10"></rect></g><g transform="translate(446,851)"><rect fill="#FFF9E5" stroke-width="2" stroke="black" x="0" y="0" width="75" height="100" rx="10" ry="10"></rect></g><g transform="translate(523,86)"><rect fill="#FFF9E5" stroke-width="2" stroke="black" x="0" y="0" width="75" height="100" rx="10" ry="10"></rect></g><g transform="translate(523,188)"><rect fill="#FFF9E5" stroke-width="2" stroke="black" x="0" y="0" width="75" height="100" rx="10" ry="10"></rect></g><g transform="translate(-24,843)"><rect fill="#FFF9E5" stroke-width="2" stroke="black" x="0" y="0" width="75" height="100" rx="10" ry="10"></rect></g><g transform="translate(53,384)"><rect fill="#FFF9E5" stroke-width="2" stroke="black" x="0" y="0" width="75" height="100" rx="10" ry="10"></rect></g><g transform="translate(53,486)"><rect fill="#FFF9E5" stroke-width="2" stroke="black" x="0" y="0" width="75" height="100" rx="10" ry="10"></rect></g><g transform="translate(53,588)"><rect fill="#FFF9E5" stroke-width="2" stroke="black" x="0" y="0" width="75" height="100" rx="10" ry="10"></rect></g><g transform="translate(53,690)"><rect fill="#FFF9E5" stroke-width="2" stroke="black" x="0" y="0" width="75" height="100" rx="10" ry="10"></rect></g><g transform="translate(53,792)"><rect fill="#FFF9E5" stroke-width="2" stroke="black" x="0" y="0" width="75" height="100" rx="10" ry="10"></rect></g><g transform="translate(91.5,180)"><rect fill="#FFF9E5" stroke-width="2" stroke="black" x="0" y="0" width="75" height="100" rx="10" ry="10"></rect></g><g transform="translate(130,27)"><rect fill="#FFF9E5" stroke-width="2" stroke="black" x="0" y="0" width="75" height="100" rx="10" ry="10"></rect></g><g transform="translate(130,333)"><rect fill="#FFF9E5" stroke-width="2" stroke="black" x="0" y="0" width="75" height="100" rx="10" ry="10"></rect></g><g transform="translate(130,537)"><rect fill="#FFF9E5" stroke-width="2" stroke="black" x="0" y="0" width="75" height="100" rx="10" ry="10"></rect></g><g transform="translate(130,741)"><rect fill="#FFF9E5" stroke-width="2" stroke="black" x="0" y="0" width="75" height="100" rx="10" ry="10"></rect></g><g transform="translate(168.5,180)"><rect fill="#FFF9E5" stroke-width="2" stroke="black" x="0" y="0" width="75" height="100" rx="10" ry="10"></rect></g><g transform="translate(207,27)"><rect fill="#FFF9E5" stroke-width="2" stroke="black" x="0" y="0" width="75" height="100" rx="10" ry="10"></rect></g><g transform="translate(207,333)"><rect fill="#FFF9E5" stroke-width="2" stroke="black" x="0" y="0" width="75" height="100" rx="10" ry="10"></rect></g><g transform="translate(207,435)"><rect fill="#FFF9E5" stroke-width="2" stroke="black" x="0" y="0" width="75" height="100" rx="10" ry="10"></rect></g><g transform="translate(207,537)"><rect fill="#FFF9E5" stroke-width="2" stroke="black" x="0" y="0" width="75" height="100" rx="10" ry="10"></rect></g><g transform="translate(207,639)"><rect fill="#FFF9E5" stroke-width="2" stroke="black" x="0" y="0" width="75" height="100" rx="10" ry="10"></rect></g><g transform="translate(207,741)"><rect fill="#FFF9E5" stroke-width="2" stroke="black" x="0" y="0" width="75" height="100" rx="10" ry="10"></rect></g><g transform="translate(245.5,180)"><rect fill="#FFF9E5" stroke-width="2" stroke="black" x="0" y="0" width="75" height="100" rx="10" ry="10"></rect></g><g transform="translate(284,27)"><rect fill="#FFF9E5" stroke-width="2" stroke="black" x="0" y="0" width="75" height="100" rx="10" ry="10"></rect></g><g transform="translate(284,333)"><rect fill="#FFF9E5" stroke-width="2" stroke="black" x="0" y="0" width="75" height="100" rx="10" ry="10"></rect></g><g transform="translate(284,537)"><rect fill="#FFF9E5" stroke-width="2" stroke="black" x="0" y="0" width="75" height="100" rx="10" ry="10"></rect></g><g transform="translate(284,741)"><rect fill="#FFF9E5" stroke-width="2" stroke="black" x="0" y="0" width="75" height="100" rx="10" ry="10"></rect></g><g transform="translate(361,27)"><rect fill="#FFF9E5" stroke-width="2" stroke="black" x="0" y="0" width="75" height="100" rx="10" ry="10"></rect></g><g transform="translate(361,282)"><rect fill="#FFF9E5" stroke-width="2" stroke="black" x="0" y="0" width="75" height="100" rx="10" ry="10"></rect></g><g transform="translate(361,384)"><rect fill="#FFF9E5" stroke-width="2" stroke="black" x="0" y="0" width="75" height="100" rx="10" ry="10"></rect></g><g transform="translate(361,486)"><rect fill="#FFF9E5" stroke-width="2" stroke="black" x="0" y="0" width="75" height="100" rx="10" ry="10"></rect></g><g transform="translate(361,588)"><rect fill="#FFF9E5" stroke-width="2" stroke="black" x="0" y="0" width="75" height="100" rx="10" ry="10"></rect></g><g transform="translate(361,690)"><rect fill="#FFF9E5" stroke-width="2" stroke="black" x="0" y="0" width="75" height="100" rx="10" ry="10"></rect></g><g transform="translate(361,792)"><rect fill="#FFF9E5" stroke-width="2" stroke="black" x="0" y="0" width="75" height="100" rx="10" ry="10"></rect></g><g transform="translate(438,27)"><rect fill="#FFF9E5" stroke-width="2" stroke="black" x="0" y="0" width="75" height="100" rx="10" ry="10"></rect></g><g transform="translate(438,231)"><rect fill="#FFF9E5" stroke-width="2" stroke="black" x="0" y="0" width="75" height="100" rx="10" ry="10"></rect></g><g transform="translate(438,435)"><rect fill="#FFF9E5" stroke-width="2" stroke="black" x="0" y="0" width="75" height="100" rx="10" ry="10"></rect></g><g transform="translate(438,843)"><rect fill="#FFF9E5" stroke-width="2" stroke="black" x="0" y="0" width="75" height="100" rx="10" ry="10"></rect></g><g transform="translate(515,78)"><rect fill="#FFF9E5" stroke-width="2" stroke="black" x="0" y="0" width="75" height="100" rx="10" ry="10"></rect></g><g transform="translate(515,180)"><rect fill="#FFF9E5" stroke-width="2" stroke="black" x="0" y="0" width="75" height="100" rx="10" ry="10"></rect></g></svg>