<svg xmlns="http://www.w3.org/2000/svg" viewBox="-28 -28 980 872" preserveAspectRatio="xMidYMid meet" height="100%" width="100%"><g transform="translate(0,0)"><rect fill="#FFF9E5" stroke-width="2" stroke="black" x="0" y="0" width="75" height="100" rx="10" ry="10"></rect></g><g transform="translate(77,0)"><rect fill="#FFF9E5" stroke-width="2" stroke="black" x="0" y="0" width="75" height="100" rx="10" ry="10"></rect></g><g transform="translate(0,102)"><rect fill="#FFF9E5" stroke-width="2" stroke="black" x="0" y="0" width="75" height="100" rx="10" ry="10"></rect></g><g transform="translate(154,0)"><rect fill="#FFF9E5" stroke-width="2" stroke="black" x="0" y="0" width="75" height="100" rx="10" ry="10"></rect></g><g transform="translate(77,102)"><rect fill="#FFF9E5" stroke-width="2" stroke="black" x="0" y="0" width="75" height="100" rx="10" ry="10"></rect></g><g transform="translate(0,204)"><rect fill="#FFF9E5" stroke-width="2" stroke="black" x="0" y="0" width="75" height="100" rx="10" ry="10"></rect></g><g transform="translate(231,0)"><rect fill="#FFF9E5" stroke-width="2" stroke="black" x="0" y="0" width="75" height="100" rx="10" ry="10"></rect></g><g transform="translate(154,102)"><rect fill="#FFF9E5" stroke-width="2" stroke="black" x="0" y="0" width="75" height="100" rx="10" ry="10"></rect></g><g transform="translate(77,204)"><rect fill="#FFF9E5" stroke-width="2" stroke="black" x="0" y="0" width="75" height="100" rx="10" ry="10"></rect></g><g transform="translate(231,102)"><rect fill="#FFF9E5" stroke-width="2" stroke="black" x="0" y="0" width="75" height="100" rx="10" ry="10"></rect></g><g transform="translate(154,204)"><rect fill="#FFF9E5" stroke-width="2" stroke="black" x="0" y="0" width="75" height="100" rx="10" ry="10"></rect></g><g transform="translate(308,51)"><rect fill="#FFF9E5" stroke-width="2" stroke="black" x="0" y="0" width="75" height="100" rx="10" ry="10"></rect></g><g transform="translate(115.5,306)"><rect fill="#FFF9E5" stroke-width="2" stroke="black" x="0" y="0" width="75" height="100" rx="10" ry="10"></rect></g><g transform="translate(231,204)"><rect fill="#FFF9E5" stroke-width="2" stroke="black" x="0" y="0" width="75" height="100" rx="10" ry="10"></rect></g><g transform="translate(0,510)"><rect fill="#FFF9E5" stroke-width="2" stroke="black" x="0" y="0" width="75" height="100" rx="10" ry="10"></rect></g><g transform="translate(385,51)"><rect fill="#FFF9E5" stroke-width="2" stroke="black" x="0" y="0" width="75" height="100" rx="10" ry="10"></rect></g><g transform="translate(115.5,408)"><rect fill="#FFF9E5" stroke-width="2" stroke="black" x="0" y="0" width="75" height="100" rx="10" ry="10"></rect></g><g transform="translate(77,510)"><rect fill="#FFF9E5" stroke-width="2" stroke="black" x="0" y="0" width="75" height="100" rx="10" ry="10"></rect></g><g transform="translate(0,612)"><rect fill="#FFF9E5" stroke-width="2" stroke="black" x="0" y="0" width="75" height="100" rx="10" ry="10"></rect></g><g transform="translate(462,51)"><rect fill="#FFF9E5" stroke-width="2" stroke="black" x="0" y="0" width="75" height="100" rx="10" ry="10"></rect></g><g transform="translate(154,510)"><rect fill="#FFF9E5" stroke-width="2" stroke="black" x="0" y="0" width="75" height="100" rx="10" ry="10"></rect></g><g transform="translate(77,612)"><rect fill="#FFF9E5" stroke-width="2" stroke="black" x="0" y="0" width="75" height="100" rx="10" ry="10"></rect></g><g transform="translate(0,714)"><rect fill="#FFF9E5" stroke-width="2" stroke="black" x="0" y="0" width="75" height="100" rx="10" ry="10"></rect></g><g transform="translate(539,51)"><rect fill="#FFF9E5" stroke-width="2" stroke="black" x="0" y="0" width="75" height="100" rx="10" ry="10"></rect></g><g transform="translate(616,0)"><rect fill="#FFF9E5" stroke-width="2" stroke="black" x="0" y="0" width="75" height="100" rx="10" ry="10"></rect></g><g transform="translate(231,510)"><rect fill="#FFF9E5" stroke-width="2" stroke="black" x="0" y="0" width="75" height="100" rx="10" ry="10"></rect></g><g transform="translate(154,612)"><rect fill="#FFF9E5" stroke-width="2" stroke="black" x="0" y="0" width="75" height="100" rx="10" ry="10"></rect></g><g transform="translate(77,714)"><rect fill="#FFF9E5" stroke-width="2" stroke="black" x="0" y="0" width="75" height="100" rx="10" ry="10"></rect></g><g transform="translate(693,0)"><rect fill="#FFF9E5" stroke-width="2" stroke="black" x="0" y="0" width="75" height="100" rx="10" ry="10"></rect></g><g transform="translate(616,102)"><rect fill="#FFF9E5" stroke-width="2" stroke="black" x="0" y="0" width="75" height="100" rx="10" ry="10"></rect></g><g transform="translate(231,612)"><rect fill="#FFF9E5" stroke-width="2" stroke="black" x="0" y="0" width="75" height="100" rx="10" ry="10"></rect></g><g transform="translate(154,714)"><rect fill="#FFF9E5" stroke-width="2" stroke="black" x="0" y="0" width="75" height="100" rx="10" ry="10"></rect></g><g transform="translate(770,0)"><rect fill="#FFF9E5" stroke-width="2" stroke="black" x="0" y="0" width="75" height="100" rx="10" ry="10"></rect></g><g transform="translate(693,102)"><rect fill="#FFF9E5" stroke-width="2" stroke="black" x="0" y="0" width="75" height="100" rx="10" ry="10"></rect></g><g transform="translate(616,204)"><rect fill="#FFF9E5" stroke-width="2" stroke="black" x="0" y="0" width="75" height="100" rx="10" ry="10"></rect></g><g transform="translate(231,714)"><rect fill="#FFF9E5" stroke-width="2" stroke="black" x="0" y="0" width="75" height="100" rx="10" ry="10"></rect></g><g transform="translate(308,663)"><rect fill="#FFF9E5" stroke-width="2" stroke="black" x="0" y="0" width="75" height="100" rx="10" ry="10"></rect></g><g transform="translate(847,0)"><rect fill="#FFF9E5" stroke-width="2" stroke="black" x="0" y="0" width="75" height="100" rx="10" ry="10"></rect></g><g transform="translate(770,102)"><rect fill="#FFF9E5" stroke-width="2" stroke="black" x="0" y="0" width="75" height="100" rx="10" ry="10"></rect></g><g transform="translate(693,204)"><rect fill="#FFF9E5" stroke-width="2" stroke="black" x="0" y="0" width="75" height="100" rx="10" ry="10"></rect></g><g transform="translate(385,663)"><rect fill="#FFF9E5" stroke-width="2" stroke="black" x="0" y="0" width="75" height="100" rx="10" ry="10"></rect></g><g transform="translate(847,102)"><rect fill="#FFF9E5" stroke-width="2" stroke="black" x="0" y="0" width="75" height="100" rx="10" ry="10"></rect></g><g transform="translate(770,204)"><rect fill="#FFF9E5" stroke-width="2" stroke="black" x="0" y="0" width="75" height="100" rx="10" ry="10"></rect></g><g transform="translate(731.5,306)"><rect fill="#FFF9E5" stroke-width="2" stroke="black" x="0" y="0" width="75" height="100" rx="10" ry="10"></rect></g><g transform="translate(462,663)"><rect fill="#FFF9E5" stroke-width="2" stroke="black" x="0" y="0" width="75" height="100" rx="10" ry="10"></rect></g><g transform="translate(847,204)"><rect fill="#FFF9E5" stroke-width="2" stroke="black" x="0" y="0" width="75" height="100" rx="10" ry="10"></rect></g><g transform="translate(616,510)"><rect fill="#FFF9E5" stroke-width="2" stroke="black" x="0" y="0" width="75" height="100" rx="10" ry="10"></rect></g><g transform="translate(731.5,408)"><rect fill="#FFF9E5" stroke-width="2" stroke="black" x="0" y="0" width="75" height="100" rx="10" ry="10"></rect></g><g transform="translate(539,663)"><rect fill="#FFF9E5" stroke-width="2" stroke="black" x="0" y="0" width="75" height="100" rx="10" ry="10"></rect></g><g transform="translate(693,510)"><rect fill="#FFF9E5" stroke-width="2" stroke="black" x="0" y="0" width="75" height="100" rx="10" ry="10"></rect></g><g transform="translate(616,612)"><rect fill="#FFF9E5" stroke-width="2" stroke="black" x="0" y="0" width="75" height="100" rx="10" ry="10"></rect></g><g transform="translate(770,510)"><rect fill="#FFF9E5" stroke-width="2" stroke="black" x="0" y="0" width="75" height="100" rx="10" ry="10"></rect></g><g transform="translate(693,612)"><rect fill="#FFF9E5" stroke-width="2" stroke="black" x="0" y="0" width="75" height="100" rx="10" ry="10"></rect></g><g transform="translate(616,714)"><rect fill="#FFF9E5" stroke-width="2" stroke="black" x="0" y="0" width="75" height="100" rx="10" ry="10"></rect></g><g transform="translate(847,510)"><rect fill="#FFF9E5" stroke-width="2" stroke="black" x="0" y="0" width="75" height="100" rx="10" ry="10"></rect></g><g transform="translate(770,612)"><rect fill="#FFF9E5" stroke-width="2" stroke="black" x="0" y="0" width="75" height="100" rx="10" ry="10"></rect></g><g transform="translate(693,714)"><rect fill="#FFF9E5" stroke-width="2" stroke="black" x="0" y="0" width="75" height="100" rx="10" ry="10"></rect></g><g transform="translate(847,612)"><rect fill="#FFF9E5" stroke-width="2" stroke="black" x="0" y="0" width="75" height="100" rx="10" ry="10"></rect></g><g transform="translate(770,714)"><rect fill="#FFF9E5" stroke-width="2" stroke="black" x="0" y="0" width="75" height="100" rx="10" ry="10"></rect></g><g transform="translate(847,714)"><rect fill="#FFF9E5" stroke-width="2" stroke="black" x="0" y="0" width="75" height="100" rx="10" ry="10"></rect></g><g transform="translate(-8,94)"><rect fill="#FFF9E5" stroke-width="2" stroke="black" x="0" y="0" width="75" height="100" rx="10" ry="10"></rect></g><g transform="translate(-8,604)"><rect fill="#FFF9E5" stroke-width="2" stroke="black" x="0" y="0" width="75" height="100" rx="10" ry="10"></rect></g><g transform="translate(69,-8)"><rect fill="#FFF9E5" stroke-width="2" stroke="black" x="0" y="0" width="75" height="100" rx="10" ry="10"></rect></g><g transform="translate(69,94)"><rect fill="#FFF9E5" stroke-width="2" stroke="black" x="0" y="0" width="75" height="100" rx="10" ry="10"></rect></g><g transform="translate(69,196)"><rect fill="#FFF9E5" stroke-width="2" stroke="black" x="0" y="0" width="75" height="100" rx="10" ry="10"></rect></g><g transform="translate(69,502)"><rect fill="#FFF9E5" stroke-width="2" stroke="black" x="0" y="0" width="75" height="100" rx="10" ry="10"></rect></g><g transform="translate(69,604)"><rect fill="#FFF9E5" stroke-width="2" stroke="black" x="0" y="0" width="75" height="100" rx="10" ry="10"></rect></g><g transform="translate(69,706)"><rect fill="#FFF9E5" stroke-width="2" stroke="black" x="0" y="0" width="75" height="100" rx="10" ry="10"></rect></g><g transform="translate(107.5,298)"><rect fill="#FFF9E5" stroke-width="2" stroke="black" x="0" y="0" width="75" height="100" rx="10" ry="10"></rect></g><g transform="translate(107.5,400)"><rect fill="#FFF9E5" stroke-width="2" stroke="black" x="0" y="0" width="75" height="100" rx="10" ry="10"></rect></g><g transform="translate(146,-8)"><rect fill="#FFF9E5" stroke-width="2" stroke="black" x="0" y="0" width="75" height="100" rx="10" ry="10"></rect></g><g transform="translate(146,94)"><rect fill="#FFF9E5" stroke-width="2" stroke="black" x="0" y="0" width="75" height="100" rx="10" ry="10"></rect></g><g transform="translate(146,196)"><rect fill="#FFF9E5" stroke-width="2" stroke="black" x="0" y="0" width="75" height="100" rx="10" ry="10"></rect></g><g transform="translate(146,502)"><rect fill="#FFF9E5" stroke-width="2" stroke="black" x="0" y="0" width="75" height="100" rx="10" ry="10"></rect></g><g transform="translate(146,604)"><rect fill="#FFF9E5" stroke-width="2" stroke="black" x="0" y="0" width="75" height="100" rx="10" ry="10"></rect></g><g transform="translate(146,706)"><rect fill="#FFF9E5" stroke-width="2" stroke="black" x="0" y="0" width="75" height="100" rx="10" ry="10"></rect></g><g transform="translate(223,94)"><rect fill="#FFF9E5" stroke-width="2" stroke="black" x="0" y="0" width="75" height="100" rx="10" ry="10"></rect></g><g transform="translate(223,604)"><rect fill="#FFF9E5" stroke-width="2" stroke="black" x="0" y="0" width="75" height="100" rx="10" ry="10"></rect></g><g transform="translate(300,43)"><rect fill="#FFF9E5" stroke-width="2" stroke="black" x="0" y="0" width="75" height="100" rx="10" ry="10"></rect></g><g transform="translate(300,655)"><rect fill="#FFF9E5" stroke-width="2" stroke="black" x="0" y="0" width="75" height="100" rx="10" ry="10"></rect></g><g transform="translate(377,43)"><rect fill="#FFF9E5" stroke-width="2" stroke="black" x="0" y="0" width="75" height="100" rx="10" ry="10"></rect></g><g transform="translate(377,655)"><rect fill="#FFF9E5" stroke-width="2" stroke="black" x="0" y="0" width="75" height="100" rx="10" ry="10"></rect></g><g transform="translate(454,43)"><rect fill="#FFF9E5" stroke-width="2" stroke="black" x="0" y="0" width="75" height="100" rx="10" ry="10"></rect></g><g transform="translate(454,655)"><rect fill="#FFF9E5" stroke-width="2" stroke="black" x="0" y="0" width="75" height="100" rx="10" ry="10"></rect></g><g transform="translate(531,43)"><rect fill="#FFF9E5" stroke-width="2" stroke="black" x="0" y="0" width="75" height="100" rx="10" ry="10"></rect></g><g transform="translate(531,655)"><rect fill="#FFF9E5" stroke-width="2" stroke="black" x="0" y="0" width="75" height="100" rx="10" ry="10"></rect></g><g transform="translate(608,94)"><rect fill="#FFF9E5" stroke-width="2" stroke="black" x="0" y="0" width="75" height="100" rx="10" ry="10"></rect></g><g transform="translate(608,604)"><rect fill="#FFF9E5" stroke-width="2" stroke="black" x="0" y="0" width="75" height="100" rx="10" ry="10"></rect></g><g transform="translate(685,-8)"><rect fill="#FFF9E5" stroke-width="2" stroke="black" x="0" y="0" width="75" height="100" rx="10" ry="10"></rect></g><g transform="translate(685,94)"><rect fill="#FFF9E5" stroke-width="2" stroke="black" x="0" y="0" width="75" height="100" rx="10" ry="10"></rect></g><g transform="translate(685,196)"><rect fill="#FFF9E5" stroke-width="2" stroke="black" x="0" y="0" width="75" height="100" rx="10" ry="10"></rect></g><g transform="translate(685,502)"><rect fill="#FFF9E5" stroke-width="2" stroke="black" x="0" y="0" width="75" height="100" rx="10" ry="10"></rect></g><g transform="translate(685,604)"><rect fill="#FFF9E5" stroke-width="2" stroke="black" x="0" y="0" width="75" height="100" rx="10" ry="10"></rect></g><g transform="translate(685,706)"><rect fill="#FFF9E5" stroke-width="2" stroke="black" x="0" y="0" width="75" height="100" rx="10" ry="10"></rect></g><g transform="translate(723.5,298)"><rect fill="#FFF9E5" stroke-width="2" stroke="black" x="0" y="0" width="75" height="100" rx="10" ry="10"></rect></g><g transform="translate(723.5,400)"><rect fill="#FFF9E5" stroke-width="2" stroke="black" x="0" y="0" width="75" height="100" rx="10" ry="10"></rect></g><g transform="translate(762,-8)"><rect fill="#FFF9E5" stroke-width="2" stroke="black" x="0" y="0" width="75" height="100" rx="10" ry="10"></rect></g><g transform="translate(762,94)"><rect fill="#FFF9E5" stroke-width="2" stroke="black" x="0" y="0" width="75" height="100" rx="10" ry="10"></rect></g><g transform="translate(762,196)"><rect fill="#FFF9E5" stroke-width="2" stroke="black" x="0" y="0" width="75" height="100" rx="10" ry="10"></rect></g><g transform="translate(762,502)"><rect fill="#FFF9E5" stroke-width="2" stroke="black" x="0" y="0" width="75" height="100" rx="10" ry="10"></rect></g><g transform="translate(762,604)"><rect fill="#FFF9E5" stroke-width="2" stroke="black" x="0" y="0" width="75" height="100" rx="10" ry="10"></rect></g><g transform="translate(762,706)"><rect fill="#FFF9E5" stroke-width="2" stroke="black" x="0" y="0" width="75" height="100" rx="10" ry="10"></rect></g><g transform="translate(839,94)"><rect fill="#FFF9E5" stroke-width="2" stroke="black" x="0" y="0" width="75" height="100" rx="10" ry="10"></rect></g><g transform="translate(839,604)"><rect fill="#FFF9E5" stroke-width="2" stroke="black" x="0" y="0" width="75" height="100" rx="10" ry="10"></rect></g><g transform="translate(99.5,35)"><rect fill="#FFF9E5" stroke-width="2" stroke="black" x="0" y="0" width="75" height="100" rx="10" ry="10"></rect></g><g transform="translate(99.5,137)"><rect fill="#FFF9E5" stroke-width="2" stroke="black" x="0" y="0" width="75" height="100" rx="10" ry="10"></rect></g><g transform="translate(99.5,239)"><rect fill="#FFF9E5" stroke-width="2" stroke="black" x="0" y="0" width="75" height="100" rx="10" ry="10"></rect></g><g transform="translate(99.5,341)"><rect fill="#FFF9E5" stroke-width="2" stroke="black" x="0" y="0" width="75" height="100" rx="10" ry="10"></rect></g><g transform="translate(99.5,443)"><rect fill="#FFF9E5" stroke-width="2" stroke="black" x="0" y="0" width="75" height="100" rx="10" ry="10"></rect></g><g transform="translate(99.5,545)"><rect fill="#FFF9E5" stroke-width="2" stroke="black" x="0" y="0" width="75" height="100" rx="10" ry="10"></rect></g><g transform="translate(99.5,647)"><rect fill="#FFF9E5" stroke-width="2" stroke="black" x="0" y="0" width="75" height="100" rx="10" ry="10"></rect></g><g transform="translate(176.5,35)"><rect fill="#FFF9E5" stroke-width="2" stroke="black" x="0" y="0" width="75" height="100" rx="10" ry="10"></rect></g><g transform="translate(176.5,647)"><rect fill="#FFF9E5" stroke-width="2" stroke="black" x="0" y="0" width="75" height="100" rx="10" ry="10"></rect></g><g transform="translate(253.5,35)"><rect fill="#FFF9E5" stroke-width="2" stroke="black" x="0" y="0" width="75" height="100" rx="10" ry="10"></rect></g><g transform="translate(253.5,647)"><rect fill="#FFF9E5" stroke-width="2" stroke="black" x="0" y="0" width="75" height="100" rx="10" ry="10"></rect></g><g transform="translate(330.5,35)"><rect fill="#FFF9E5" stroke-width="2" stroke="black" x="0" y="0" width="75" height="100" rx="10" ry="10"></rect></g><g transform="translate(330.5,647)"><rect fill="#FFF9E5" stroke-width="2" stroke="black" x="0" y="0" width="75" height="100" rx="10" ry="10"></rect></g><g transform="translate(407.5,35)"><rect fill="#FFF9E5" stroke-width="2" stroke="black" x="0" y="0" width="75" height="100" rx="10" ry="10"></rect></g><g transform="translate(407.5,647)"><rect fill="#FFF9E5" stroke-width="2" stroke="black" x="0" y="0" width="75" height="100" rx="10" ry="10"></rect></g><g transform="translate(484.5,35)"><rect fill="#FFF9E5" stroke-width="2" stroke="black" x="0" y="0" width="75" height="100" rx="10" ry="10"></rect></g><g transform="translate(484.5,647)"><rect fill="#FFF9E5" stroke-width="2" stroke="black" x="0" y="0" width="75" height="100" rx="10" ry="10"></rect></g><g transform="translate(561.5,35)"><rect fill="#FFF9E5" stroke-width="2" stroke="black" x="0" y="0" width="75" height="100" rx="10" ry="10"></rect></g><g transform="translate(561.5,647)"><rect fill="#FFF9E5" stroke-width="2" stroke="black" x="0" y="0" width="75" height="100" rx="10" ry="10"></rect></g><g transform="translate(638.5,35)"><rect fill="#FFF9E5" stroke-width="2" stroke="black" x="0" y="0" width="75" height="100" rx="10" ry="10"></rect></g><g transform="translate(638.5,647)"><rect fill="#FFF9E5" stroke-width="2" stroke="black" x="0" y="0" width="75" height="100" rx="10" ry="10"></rect></g><g transform="translate(715.5,35)"><rect fill="#FFF9E5" stroke-width="2" stroke="black" x="0" y="0" width="75" height="100" rx="10" ry="10"></rect></g><g transform="translate(715.5,137)"><rect fill="#FFF9E5" stroke-width="2" stroke="black" x="0" y="0" width="75" height="100" rx="10" ry="10"></rect></g><g transform="translate(715.5,239)"><rect fill="#FFF9E5" stroke-width="2" stroke="black" x="0" y="0" width="75" height="100" rx="10" ry="10"></rect></g><g transform="translate(715.5,341)"><rect fill="#FFF9E5" stroke-width="2" stroke="black" x="0" y="0" width="75" height="100" rx="10" ry="10"></rect></g><g transform="translate(715.5,443)"><rect fill="#FFF9E5" stroke-width="2" stroke="black" x="0" y="0" width="75" height="100" rx="10" ry="10"></rect></g><g transform="translate(715.5,545)"><rect fill="#FFF9E5" stroke-width="2" stroke="black" x="0" y="0" width="75" height="100" rx="10" ry="10"></rect></g><g transform="translate(715.5,647)"><rect fill="#FFF9E5" stroke-width="2" stroke="black" x="0" y="0" width="75" height="100" rx="10" ry="10"></rect></g><g transform="translate(91.5,27)"><rect fill="#FFF9E5" stroke-width="2" stroke="black" x="0" y="0" width="75" height="100" rx="10" ry="10"></rect></g><g transform="translate(91.5,231)"><rect fill="#FFF9E5" stroke-width="2" stroke="black" x="0" y="0" width="75" height="100" rx="10" ry="10"></rect></g><g transform="translate(91.5,435)"><rect fill="#FFF9E5" stroke-width="2" stroke="black" x="0" y="0" width="75" height="100" rx="10" ry="10"></rect></g><g transform="translate(91.5,639)"><rect fill="#FFF9E5" stroke-width="2" stroke="black" x="0" y="0" width="75" height="100" rx="10" ry="10"></rect></g><g transform="translate(284,27)"><rect fill="#FFF9E5" stroke-width="2" stroke="black" x="0" y="0" width="75" height="100" rx="10" ry="10"></rect></g><g transform="translate(284,639)"><rect fill="#FFF9E5" stroke-width="2" stroke="black" x="0" y="0" width="75" height="100" rx="10" ry="10"></rect></g><g transform="translate(515,27)"><rect fill="#FFF9E5" stroke-width="2" stroke="black" x="0" y="0" width="75" height="100" rx="10" ry="10"></rect></g><g transform="translate(515,639)"><rect fill="#FFF9E5" stroke-width="2" stroke="black" x="0" y="0" width="75" height="100" rx="10" ry="10"></rect></g><g transform="translate(707.5,27)"><rect fill="#FFF9E5" stroke-width="2" stroke="black" x="0" y="0" width="75" height="100" rx="10" ry="10"></rect></g><g transform="translate(707.5,231)"><rect fill="#FFF9E5" stroke-width="2" stroke="black" x="0" y="0" width="75" height="100" rx="10" ry="10"></rect></g><g transform="translate(707.5,435)"><rect fill="#FFF9E5" stroke-width="2" stroke="black" x="0" y="0" width="75" height="100" rx="10" ry="10"></rect></g><g transform="translate(707.5,639)"><rect fill="#FFF9E5" stroke-width="2" stroke="black" x="0" y="0" width="75" height="100" rx="10" ry="10"></rect></g></svg>