<svg xmlns="http://www.w3.org/2000/svg" viewBox="-26.5 6 870.5 884" preserveAspectRatio="xMidYMid meet" height="100%" width="100%"><g transform="translate(37.5,407)"><rect fill="#FFF9E5" stroke-width="2" stroke="black" x="0" y="0" width="75" height="100" rx="10" ry="10"></rect></g><g transform="translate(76,305)"><rect fill="#FFF9E5" stroke-width="2" stroke="black" x="0" y="0" width="75" height="100" rx="10" ry="10"></rect></g><g transform="translate(76,509)"><rect fill="#FFF9E5" stroke-width="2" stroke="black" x="0" y="0" width="75" height="100" rx="10" ry="10"></rect></g><g transform="translate(153,203)"><rect fill="#FFF9E5" stroke-width="2" stroke="black" x="0" y="0" width="75" height="100" rx="10" ry="10"></rect></g><g transform="translate(153,305)"><rect fill="#FFF9E5" stroke-width="2" stroke="black" x="0" y="0" width="75" height="100" rx="10" ry="10"></rect></g><g transform="translate(153,509)"><rect fill="#FFF9E5" stroke-width="2" stroke="black" x="0" y="0" width="75" height="100" rx="10" ry="10"></rect></g><g transform="translate(153,611)"><rect fill="#FFF9E5" stroke-width="2" stroke="black" x="0" y="0" width="75" height="100" rx="10" ry="10"></rect></g><g transform="translate(230,101)"><rect fill="#FFF9E5" stroke-width="2" stroke="black" x="0" y="0" width="75" height="100" rx="10" ry="10"></rect></g><g transform="translate(230,203)"><rect fill="#FFF9E5" stroke-width="2" stroke="black" x="0" y="0" width="75" height="100" rx="10" ry="10"></rect></g><g transform="translate(230,305)"><rect fill="#FFF9E5" stroke-width="2" stroke="black" x="0" y="0" width="75" height="100" rx="10" ry="10"></rect></g><g transform="translate(230,407)"><rect fill="#FFF9E5" stroke-width="2" stroke="black" x="0" y="0" width="75" height="100" rx="10" ry="10"></rect></g><g transform="translate(230,509)"><rect fill="#FFF9E5" stroke-width="2" stroke="black" x="0" y="0" width="75" height="100" rx="10" ry="10"></rect></g><g transform="translate(230,611)"><rect fill="#FFF9E5" stroke-width="2" stroke="black" x="0" y="0" width="75" height="100" rx="10" ry="10"></rect></g><g transform="translate(230,713)"><rect fill="#FFF9E5" stroke-width="2" stroke="black" x="0" y="0" width="75" height="100" rx="10" ry="10"></rect></g><g transform="translate(307,101)"><rect fill="#FFF9E5" stroke-width="2" stroke="black" x="0" y="0" width="75" height="100" rx="10" ry="10"></rect></g><g transform="translate(307,203)"><rect fill="#FFF9E5" stroke-width="2" stroke="black" x="0" y="0" width="75" height="100" rx="10" ry="10"></rect></g><g transform="translate(307,305)"><rect fill="#FFF9E5" stroke-width="2" stroke="black" x="0" y="0" width="75" height="100" rx="10" ry="10"></rect></g><g transform="translate(307,509)"><rect fill="#FFF9E5" stroke-width="2" stroke="black" x="0" y="0" width="75" height="100" rx="10" ry="10"></rect></g><g transform="translate(307,611)"><rect fill="#FFF9E5" stroke-width="2" stroke="black" x="0" y="0" width="75" height="100" rx="10" ry="10"></rect></g><g transform="translate(307,713)"><rect fill="#FFF9E5" stroke-width="2" stroke="black" x="0" y="0" width="75" height="100" rx="10" ry="10"></rect></g><g transform="translate(384,50)"><rect fill="#FFF9E5" stroke-width="2" stroke="black" x="0" y="0" width="75" height="100" rx="10" ry="10"></rect></g><g transform="translate(384,254)"><rect fill="#FFF9E5" stroke-width="2" stroke="black" x="0" y="0" width="75" height="100" rx="10" ry="10"></rect></g><g transform="translate(384,407)"><rect fill="#FFF9E5" stroke-width="2" stroke="black" x="0" y="0" width="75" height="100" rx="10" ry="10"></rect></g><g transform="translate(384,560)"><rect fill="#FFF9E5" stroke-width="2" stroke="black" x="0" y="0" width="75" height="100" rx="10" ry="10"></rect></g><g transform="translate(384,764)"><rect fill="#FFF9E5" stroke-width="2" stroke="black" x="0" y="0" width="75" height="100" rx="10" ry="10"></rect></g><g transform="translate(461,101)"><rect fill="#FFF9E5" stroke-width="2" stroke="black" x="0" y="0" width="75" height="100" rx="10" ry="10"></rect></g><g transform="translate(461,203)"><rect fill="#FFF9E5" stroke-width="2" stroke="black" x="0" y="0" width="75" height="100" rx="10" ry="10"></rect></g><g transform="translate(461,305)"><rect fill="#FFF9E5" stroke-width="2" stroke="black" x="0" y="0" width="75" height="100" rx="10" ry="10"></rect></g><g transform="translate(461,509)"><rect fill="#FFF9E5" stroke-width="2" stroke="black" x="0" y="0" width="75" height="100" rx="10" ry="10"></rect></g><g transform="translate(461,611)"><rect fill="#FFF9E5" stroke-width="2" stroke="black" x="0" y="0" width="75" height="100" rx="10" ry="10"></rect></g><g transform="translate(461,713)"><rect fill="#FFF9E5" stroke-width="2" stroke="black" x="0" y="0" width="75" height="100" rx="10" ry="10"></rect></g><g transform="translate(538,101)"><rect fill="#FFF9E5" stroke-width="2" stroke="black" x="0" y="0" width="75" height="100" rx="10" ry="10"></rect></g><g transform="translate(538,203)"><rect fill="#FFF9E5" stroke-width="2" stroke="black" x="0" y="0" width="75" height="100" rx="10" ry="10"></rect></g><g transform="translate(538,305)"><rect fill="#FFF9E5" stroke-width="2" stroke="black" x="0" y="0" width="75" height="100" rx="10" ry="10"></rect></g><g transform="translate(538,407)"><rect fill="#FFF9E5" stroke-width="2" stroke="black" x="0" y="0" width="75" height="100" rx="10" ry="10"></rect></g><g transform="translate(538,509)"><rect fill="#FFF9E5" stroke-width="2" stroke="black" x="0" y="0" width="75" height="100" rx="10" ry="10"></rect></g><g transform="translate(538,611)"><rect fill="#FFF9E5" stroke-width="2" stroke="black" x="0" y="0" width="75" height="100" rx="10" ry="10"></rect></g><g transform="translate(538,713)"><rect fill="#FFF9E5" stroke-width="2" stroke="black" x="0" y="0" width="75" height="100" rx="10" ry="10"></rect></g><g transform="translate(615,203)"><rect fill="#FFF9E5" stroke-width="2" stroke="black" x="0" y="0" width="75" height="100" rx="10" ry="10"></rect></g><g transform="translate(615,305)"><rect fill="#FFF9E5" stroke-width="2" stroke="black" x="0" y="0" width="75" height="100" rx="10" ry="10"></rect></g><g transform="translate(615,509)"><rect fill="#FFF9E5" stroke-width="2" stroke="black" x="0" y="0" width="75" height="100" rx="10" ry="10"></rect></g><g transform="translate(615,611)"><rect fill="#FFF9E5" stroke-width="2" stroke="black" x="0" y="0" width="75" height="100" rx="10" ry="10"></rect></g><g transform="translate(692,305)"><rect fill="#FFF9E5" stroke-width="2" stroke="black" x="0" y="0" width="75" height="100" rx="10" ry="10"></rect></g><g transform="translate(692,509)"><rect fill="#FFF9E5" stroke-width="2" stroke="black" x="0" y="0" width="75" height="100" rx="10" ry="10"></rect></g><g transform="translate(730.5,407)"><rect fill="#FFF9E5" stroke-width="2" stroke="black" x="0" y="0" width="75" height="100" rx="10" ry="10"></rect></g><g transform="translate(29.5,399)"><rect fill="#FFF9E5" stroke-width="2" stroke="black" x="0" y="0" width="75" height="100" rx="10" ry="10"></rect></g><g transform="translate(68,297)"><rect fill="#FFF9E5" stroke-width="2" stroke="black" x="0" y="0" width="75" height="100" rx="10" ry="10"></rect></g><g transform="translate(68,501)"><rect fill="#FFF9E5" stroke-width="2" stroke="black" x="0" y="0" width="75" height="100" rx="10" ry="10"></rect></g><g transform="translate(145,195)"><rect fill="#FFF9E5" stroke-width="2" stroke="black" x="0" y="0" width="75" height="100" rx="10" ry="10"></rect></g><g transform="translate(145,297)"><rect fill="#FFF9E5" stroke-width="2" stroke="black" x="0" y="0" width="75" height="100" rx="10" ry="10"></rect></g><g transform="translate(145,501)"><rect fill="#FFF9E5" stroke-width="2" stroke="black" x="0" y="0" width="75" height="100" rx="10" ry="10"></rect></g><g transform="translate(145,603)"><rect fill="#FFF9E5" stroke-width="2" stroke="black" x="0" y="0" width="75" height="100" rx="10" ry="10"></rect></g><g transform="translate(222,93)"><rect fill="#FFF9E5" stroke-width="2" stroke="black" x="0" y="0" width="75" height="100" rx="10" ry="10"></rect></g><g transform="translate(222,195)"><rect fill="#FFF9E5" stroke-width="2" stroke="black" x="0" y="0" width="75" height="100" rx="10" ry="10"></rect></g><g transform="translate(222,297)"><rect fill="#FFF9E5" stroke-width="2" stroke="black" x="0" y="0" width="75" height="100" rx="10" ry="10"></rect></g><g transform="translate(222,399)"><rect fill="#FFF9E5" stroke-width="2" stroke="black" x="0" y="0" width="75" height="100" rx="10" ry="10"></rect></g><g transform="translate(222,501)"><rect fill="#FFF9E5" stroke-width="2" stroke="black" x="0" y="0" width="75" height="100" rx="10" ry="10"></rect></g><g transform="translate(222,603)"><rect fill="#FFF9E5" stroke-width="2" stroke="black" x="0" y="0" width="75" height="100" rx="10" ry="10"></rect></g><g transform="translate(222,705)"><rect fill="#FFF9E5" stroke-width="2" stroke="black" x="0" y="0" width="75" height="100" rx="10" ry="10"></rect></g><g transform="translate(299,93)"><rect fill="#FFF9E5" stroke-width="2" stroke="black" x="0" y="0" width="75" height="100" rx="10" ry="10"></rect></g><g transform="translate(299,195)"><rect fill="#FFF9E5" stroke-width="2" stroke="black" x="0" y="0" width="75" height="100" rx="10" ry="10"></rect></g><g transform="translate(299,297)"><rect fill="#FFF9E5" stroke-width="2" stroke="black" x="0" y="0" width="75" height="100" rx="10" ry="10"></rect></g><g transform="translate(299,501)"><rect fill="#FFF9E5" stroke-width="2" stroke="black" x="0" y="0" width="75" height="100" rx="10" ry="10"></rect></g><g transform="translate(299,603)"><rect fill="#FFF9E5" stroke-width="2" stroke="black" x="0" y="0" width="75" height="100" rx="10" ry="10"></rect></g><g transform="translate(299,705)"><rect fill="#FFF9E5" stroke-width="2" stroke="black" x="0" y="0" width="75" height="100" rx="10" ry="10"></rect></g><g transform="translate(376,42)"><rect fill="#FFF9E5" stroke-width="2" stroke="black" x="0" y="0" width="75" height="100" rx="10" ry="10"></rect></g><g transform="translate(376,246)"><rect fill="#FFF9E5" stroke-width="2" stroke="black" x="0" y="0" width="75" height="100" rx="10" ry="10"></rect></g><g transform="translate(376,399)"><rect fill="#FFF9E5" stroke-width="2" stroke="black" x="0" y="0" width="75" height="100" rx="10" ry="10"></rect></g><g transform="translate(376,552)"><rect fill="#FFF9E5" stroke-width="2" stroke="black" x="0" y="0" width="75" height="100" rx="10" ry="10"></rect></g><g transform="translate(376,756)"><rect fill="#FFF9E5" stroke-width="2" stroke="black" x="0" y="0" width="75" height="100" rx="10" ry="10"></rect></g><g transform="translate(453,93)"><rect fill="#FFF9E5" stroke-width="2" stroke="black" x="0" y="0" width="75" height="100" rx="10" ry="10"></rect></g><g transform="translate(453,195)"><rect fill="#FFF9E5" stroke-width="2" stroke="black" x="0" y="0" width="75" height="100" rx="10" ry="10"></rect></g><g transform="translate(453,297)"><rect fill="#FFF9E5" stroke-width="2" stroke="black" x="0" y="0" width="75" height="100" rx="10" ry="10"></rect></g><g transform="translate(453,501)"><rect fill="#FFF9E5" stroke-width="2" stroke="black" x="0" y="0" width="75" height="100" rx="10" ry="10"></rect></g><g transform="translate(453,603)"><rect fill="#FFF9E5" stroke-width="2" stroke="black" x="0" y="0" width="75" height="100" rx="10" ry="10"></rect></g><g transform="translate(453,705)"><rect fill="#FFF9E5" stroke-width="2" stroke="black" x="0" y="0" width="75" height="100" rx="10" ry="10"></rect></g><g transform="translate(530,93)"><rect fill="#FFF9E5" stroke-width="2" stroke="black" x="0" y="0" width="75" height="100" rx="10" ry="10"></rect></g><g transform="translate(530,195)"><rect fill="#FFF9E5" stroke-width="2" stroke="black" x="0" y="0" width="75" height="100" rx="10" ry="10"></rect></g><g transform="translate(530,297)"><rect fill="#FFF9E5" stroke-width="2" stroke="black" x="0" y="0" width="75" height="100" rx="10" ry="10"></rect></g><g transform="translate(530,399)"><rect fill="#FFF9E5" stroke-width="2" stroke="black" x="0" y="0" width="75" height="100" rx="10" ry="10"></rect></g><g transform="translate(530,501)"><rect fill="#FFF9E5" stroke-width="2" stroke="black" x="0" y="0" width="75" height="100" rx="10" ry="10"></rect></g><g transform="translate(530,603)"><rect fill="#FFF9E5" stroke-width="2" stroke="black" x="0" y="0" width="75" height="100" rx="10" ry="10"></rect></g><g transform="translate(530,705)"><rect fill="#FFF9E5" stroke-width="2" stroke="black" x="0" y="0" width="75" height="100" rx="10" ry="10"></rect></g><g transform="translate(607,195)"><rect fill="#FFF9E5" stroke-width="2" stroke="black" x="0" y="0" width="75" height="100" rx="10" ry="10"></rect></g><g transform="translate(607,297)"><rect fill="#FFF9E5" stroke-width="2" stroke="black" x="0" y="0" width="75" height="100" rx="10" ry="10"></rect></g><g transform="translate(607,501)"><rect fill="#FFF9E5" stroke-width="2" stroke="black" x="0" y="0" width="75" height="100" rx="10" ry="10"></rect></g><g transform="translate(607,603)"><rect fill="#FFF9E5" stroke-width="2" stroke="black" x="0" y="0" width="75" height="100" rx="10" ry="10"></rect></g><g transform="translate(684,297)"><rect fill="#FFF9E5" stroke-width="2" stroke="black" x="0" y="0" width="75" height="100" rx="10" ry="10"></rect></g><g transform="translate(684,501)"><rect fill="#FFF9E5" stroke-width="2" stroke="black" x="0" y="0" width="75" height="100" rx="10" ry="10"></rect></g><g transform="translate(722.5,399)"><rect fill="#FFF9E5" stroke-width="2" stroke="black" x="0" y="0" width="75" height="100" rx="10" ry="10"></rect></g><g transform="translate(21.5,391)"><rect fill="#FFF9E5" stroke-width="2" stroke="black" x="0" y="0" width="75" height="100" rx="10" ry="10"></rect></g><g transform="translate(137,289)"><rect fill="#FFF9E5" stroke-width="2" stroke="black" x="0" y="0" width="75" height="100" rx="10" ry="10"></rect></g><g transform="translate(137,493)"><rect fill="#FFF9E5" stroke-width="2" stroke="black" x="0" y="0" width="75" height="100" rx="10" ry="10"></rect></g><g transform="translate(214,187)"><rect fill="#FFF9E5" stroke-width="2" stroke="black" x="0" y="0" width="75" height="100" rx="10" ry="10"></rect></g><g transform="translate(214,289)"><rect fill="#FFF9E5" stroke-width="2" stroke="black" x="0" y="0" width="75" height="100" rx="10" ry="10"></rect></g><g transform="translate(214,391)"><rect fill="#FFF9E5" stroke-width="2" stroke="black" x="0" y="0" width="75" height="100" rx="10" ry="10"></rect></g><g transform="translate(214,493)"><rect fill="#FFF9E5" stroke-width="2" stroke="black" x="0" y="0" width="75" height="100" rx="10" ry="10"></rect></g><g transform="translate(214,595)"><rect fill="#FFF9E5" stroke-width="2" stroke="black" x="0" y="0" width="75" height="100" rx="10" ry="10"></rect></g><g transform="translate(291,85)"><rect fill="#FFF9E5" stroke-width="2" stroke="black" x="0" y="0" width="75" height="100" rx="10" ry="10"></rect></g><g transform="translate(291,187)"><rect fill="#FFF9E5" stroke-width="2" stroke="black" x="0" y="0" width="75" height="100" rx="10" ry="10"></rect></g><g transform="translate(291,289)"><rect fill="#FFF9E5" stroke-width="2" stroke="black" x="0" y="0" width="75" height="100" rx="10" ry="10"></rect></g><g transform="translate(291,493)"><rect fill="#FFF9E5" stroke-width="2" stroke="black" x="0" y="0" width="75" height="100" rx="10" ry="10"></rect></g><g transform="translate(291,595)"><rect fill="#FFF9E5" stroke-width="2" stroke="black" x="0" y="0" width="75" height="100" rx="10" ry="10"></rect></g><g transform="translate(291,697)"><rect fill="#FFF9E5" stroke-width="2" stroke="black" x="0" y="0" width="75" height="100" rx="10" ry="10"></rect></g><g transform="translate(368,34)"><rect fill="#FFF9E5" stroke-width="2" stroke="black" x="0" y="0" width="75" height="100" rx="10" ry="10"></rect></g><g transform="translate(368,238)"><rect fill="#FFF9E5" stroke-width="2" stroke="black" x="0" y="0" width="75" height="100" rx="10" ry="10"></rect></g><g transform="translate(368,391)"><rect fill="#FFF9E5" stroke-width="2" stroke="black" x="0" y="0" width="75" height="100" rx="10" ry="10"></rect></g><g transform="translate(368,544)"><rect fill="#FFF9E5" stroke-width="2" stroke="black" x="0" y="0" width="75" height="100" rx="10" ry="10"></rect></g><g transform="translate(368,748)"><rect fill="#FFF9E5" stroke-width="2" stroke="black" x="0" y="0" width="75" height="100" rx="10" ry="10"></rect></g><g transform="translate(445,85)"><rect fill="#FFF9E5" stroke-width="2" stroke="black" x="0" y="0" width="75" height="100" rx="10" ry="10"></rect></g><g transform="translate(445,187)"><rect fill="#FFF9E5" stroke-width="2" stroke="black" x="0" y="0" width="75" height="100" rx="10" ry="10"></rect></g><g transform="translate(445,289)"><rect fill="#FFF9E5" stroke-width="2" stroke="black" x="0" y="0" width="75" height="100" rx="10" ry="10"></rect></g><g transform="translate(445,493)"><rect fill="#FFF9E5" stroke-width="2" stroke="black" x="0" y="0" width="75" height="100" rx="10" ry="10"></rect></g><g transform="translate(445,595)"><rect fill="#FFF9E5" stroke-width="2" stroke="black" x="0" y="0" width="75" height="100" rx="10" ry="10"></rect></g><g transform="translate(445,697)"><rect fill="#FFF9E5" stroke-width="2" stroke="black" x="0" y="0" width="75" height="100" rx="10" ry="10"></rect></g><g transform="translate(522,187)"><rect fill="#FFF9E5" stroke-width="2" stroke="black" x="0" y="0" width="75" height="100" rx="10" ry="10"></rect></g><g transform="translate(522,289)"><rect fill="#FFF9E5" stroke-width="2" stroke="black" x="0" y="0" width="75" height="100" rx="10" ry="10"></rect></g><g transform="translate(522,391)"><rect fill="#FFF9E5" stroke-width="2" stroke="black" x="0" y="0" width="75" height="100" rx="10" ry="10"></rect></g><g transform="translate(522,493)"><rect fill="#FFF9E5" stroke-width="2" stroke="black" x="0" y="0" width="75" height="100" rx="10" ry="10"></rect></g><g transform="translate(522,595)"><rect fill="#FFF9E5" stroke-width="2" stroke="black" x="0" y="0" width="75" height="100" rx="10" ry="10"></rect></g><g transform="translate(599,289)"><rect fill="#FFF9E5" stroke-width="2" stroke="black" x="0" y="0" width="75" height="100" rx="10" ry="10"></rect></g><g transform="translate(599,493)"><rect fill="#FFF9E5" stroke-width="2" stroke="black" x="0" y="0" width="75" height="100" rx="10" ry="10"></rect></g><g transform="translate(714.5,391)"><rect fill="#FFF9E5" stroke-width="2" stroke="black" x="0" y="0" width="75" height="100" rx="10" ry="10"></rect></g><g transform="translate(13.5,383)"><rect fill="#FFF9E5" stroke-width="2" stroke="black" x="0" y="0" width="75" height="100" rx="10" ry="10"></rect></g><g transform="translate(206,281)"><rect fill="#FFF9E5" stroke-width="2" stroke="black" x="0" y="0" width="75" height="100" rx="10" ry="10"></rect></g><g transform="translate(206,383)"><rect fill="#FFF9E5" stroke-width="2" stroke="black" x="0" y="0" width="75" height="100" rx="10" ry="10"></rect></g><g transform="translate(206,485)"><rect fill="#FFF9E5" stroke-width="2" stroke="black" x="0" y="0" width="75" height="100" rx="10" ry="10"></rect></g><g transform="translate(283,179)"><rect fill="#FFF9E5" stroke-width="2" stroke="black" x="0" y="0" width="75" height="100" rx="10" ry="10"></rect></g><g transform="translate(283,281)"><rect fill="#FFF9E5" stroke-width="2" stroke="black" x="0" y="0" width="75" height="100" rx="10" ry="10"></rect></g><g transform="translate(283,485)"><rect fill="#FFF9E5" stroke-width="2" stroke="black" x="0" y="0" width="75" height="100" rx="10" ry="10"></rect></g><g transform="translate(283,587)"><rect fill="#FFF9E5" stroke-width="2" stroke="black" x="0" y="0" width="75" height="100" rx="10" ry="10"></rect></g><g transform="translate(360,26)"><rect fill="#FFF9E5" stroke-width="2" stroke="black" x="0" y="0" width="75" height="100" rx="10" ry="10"></rect></g><g transform="translate(360,230)"><rect fill="#FFF9E5" stroke-width="2" stroke="black" x="0" y="0" width="75" height="100" rx="10" ry="10"></rect></g><g transform="translate(360,383)"><rect fill="#FFF9E5" stroke-width="2" stroke="black" x="0" y="0" width="75" height="100" rx="10" ry="10"></rect></g><g transform="translate(360,536)"><rect fill="#FFF9E5" stroke-width="2" stroke="black" x="0" y="0" width="75" height="100" rx="10" ry="10"></rect></g><g transform="translate(360,740)"><rect fill="#FFF9E5" stroke-width="2" stroke="black" x="0" y="0" width="75" height="100" rx="10" ry="10"></rect></g><g transform="translate(437,179)"><rect fill="#FFF9E5" stroke-width="2" stroke="black" x="0" y="0" width="75" height="100" rx="10" ry="10"></rect></g><g transform="translate(437,281)"><rect fill="#FFF9E5" stroke-width="2" stroke="black" x="0" y="0" width="75" height="100" rx="10" ry="10"></rect></g><g transform="translate(437,485)"><rect fill="#FFF9E5" stroke-width="2" stroke="black" x="0" y="0" width="75" height="100" rx="10" ry="10"></rect></g><g transform="translate(437,587)"><rect fill="#FFF9E5" stroke-width="2" stroke="black" x="0" y="0" width="75" height="100" rx="10" ry="10"></rect></g><g transform="translate(514,281)"><rect fill="#FFF9E5" stroke-width="2" stroke="black" x="0" y="0" width="75" height="100" rx="10" ry="10"></rect></g><g transform="translate(514,383)"><rect fill="#FFF9E5" stroke-width="2" stroke="black" x="0" y="0" width="75" height="100" rx="10" ry="10"></rect></g><g transform="translate(514,485)"><rect fill="#FFF9E5" stroke-width="2" stroke="black" x="0" y="0" width="75" height="100" rx="10" ry="10"></rect></g><g transform="translate(706.5,383)"><rect fill="#FFF9E5" stroke-width="2" stroke="black" x="0" y="0" width="75" height="100" rx="10" ry="10"></rect></g></svg>